<mxfile host="app.diagrams.net" modified="2023-03-31T14:48:53.985Z" agent="Mozilla/5.0 (Windows NT 10.0; Win64; x64) AppleWebKit/537.36 (KHTML, like Gecko) Chrome/111.0.0.0 Safari/537.36" etag="jMYgTM1VUVbPCKhWWdEi" version="21.1.2" type="github" pages="4">
  <diagram name="Page-1" id="QsDBgdQCwnRnDj4SqAwj">
    <mxGraphModel dx="2022" dy="657" grid="1" gridSize="10" guides="1" tooltips="1" connect="1" arrows="1" fold="1" page="1" pageScale="1" pageWidth="827" pageHeight="1169" math="0" shadow="0">
      <root>
        <mxCell id="0" />
        <mxCell id="1" parent="0" />
        <mxCell id="qwD3XdrIpNs9pehdpU2p-4" value="[CLS] + Protein P (+) Protein P&#39; + [SEP]" style="shape=step;perimeter=stepPerimeter;whiteSpace=wrap;html=1;fixedSize=1;fillColor=#fff2cc;strokeColor=#d6b656;" parent="1" vertex="1">
          <mxGeometry x="-800" y="345" width="259" height="50" as="geometry" />
        </mxCell>
        <mxCell id="qwD3XdrIpNs9pehdpU2p-6" value="&lt;b&gt;Pretrained ProteinBertBFD&lt;br&gt;&lt;font style=&quot;font-size: 10px;&quot;&gt;(Parameters are freezed)&lt;/font&gt;&lt;/b&gt;" style="rounded=1;whiteSpace=wrap;html=1;fillColor=#dae8fc;strokeColor=#6c8ebf;" parent="1" vertex="1">
          <mxGeometry x="-530" y="225" width="246" height="290" as="geometry" />
        </mxCell>
        <mxCell id="qwD3XdrIpNs9pehdpU2p-8" value="" style="endArrow=none;dashed=1;html=1;rounded=0;entryX=0.885;entryY=0;entryDx=0;entryDy=0;entryPerimeter=0;exitX=0.885;exitY=1;exitDx=0;exitDy=0;exitPerimeter=0;" parent="1" source="qwD3XdrIpNs9pehdpU2p-6" target="qwD3XdrIpNs9pehdpU2p-6" edge="1">
          <mxGeometry width="50" height="50" relative="1" as="geometry">
            <mxPoint x="-320" y="315" as="sourcePoint" />
            <mxPoint x="-270" y="265" as="targetPoint" />
          </mxGeometry>
        </mxCell>
        <mxCell id="qwD3XdrIpNs9pehdpU2p-20" value="" style="endArrow=classic;html=1;rounded=0;" parent="1" edge="1">
          <mxGeometry width="50" height="50" relative="1" as="geometry">
            <mxPoint x="-270" y="255" as="sourcePoint" />
            <mxPoint x="-190" y="255" as="targetPoint" />
          </mxGeometry>
        </mxCell>
        <mxCell id="qwD3XdrIpNs9pehdpU2p-21" value="" style="endArrow=classic;html=1;rounded=0;" parent="1" edge="1">
          <mxGeometry width="50" height="50" relative="1" as="geometry">
            <mxPoint x="-270" y="495" as="sourcePoint" />
            <mxPoint x="-190" y="495" as="targetPoint" />
          </mxGeometry>
        </mxCell>
        <mxCell id="qwD3XdrIpNs9pehdpU2p-22" value="" style="endArrow=classic;html=1;rounded=0;" parent="1" edge="1">
          <mxGeometry width="50" height="50" relative="1" as="geometry">
            <mxPoint x="-270" y="295" as="sourcePoint" />
            <mxPoint x="-190" y="295" as="targetPoint" />
          </mxGeometry>
        </mxCell>
        <mxCell id="qwD3XdrIpNs9pehdpU2p-23" value="" style="endArrow=classic;html=1;rounded=0;" parent="1" edge="1">
          <mxGeometry width="50" height="50" relative="1" as="geometry">
            <mxPoint x="-270" y="335" as="sourcePoint" />
            <mxPoint x="-190" y="335" as="targetPoint" />
          </mxGeometry>
        </mxCell>
        <mxCell id="qwD3XdrIpNs9pehdpU2p-24" value="" style="endArrow=classic;html=1;rounded=0;" parent="1" edge="1">
          <mxGeometry width="50" height="50" relative="1" as="geometry">
            <mxPoint x="-270" y="455" as="sourcePoint" />
            <mxPoint x="-190" y="455" as="targetPoint" />
          </mxGeometry>
        </mxCell>
        <mxCell id="qwD3XdrIpNs9pehdpU2p-25" value="&lt;font style=&quot;font-size: 7px;&quot;&gt;&lt;b&gt;[CLS] Token Embedding&lt;/b&gt;&lt;/font&gt;" style="rounded=0;whiteSpace=wrap;html=1;fillColor=#d5e8d4;strokeColor=#82b366;" parent="1" vertex="1">
          <mxGeometry x="-180" y="245" width="90" height="20" as="geometry" />
        </mxCell>
        <mxCell id="qwD3XdrIpNs9pehdpU2p-26" value="&lt;font style=&quot;font-size: 7px;&quot;&gt;&lt;b&gt;Amino acid&#39;s Embedding&lt;/b&gt;&lt;/font&gt;" style="rounded=0;whiteSpace=wrap;html=1;" parent="1" vertex="1">
          <mxGeometry x="-180" y="285" width="90" height="20" as="geometry" />
        </mxCell>
        <mxCell id="qwD3XdrIpNs9pehdpU2p-27" value="&lt;b style=&quot;--tw-border-spacing-x: 0; --tw-border-spacing-y: 0; --tw-translate-x: 0; --tw-translate-y: 0; --tw-rotate: 0; --tw-skew-x: 0; --tw-skew-y: 0; --tw-scale-x: 1; --tw-scale-y: 1; --tw-pan-x: ; --tw-pan-y: ; --tw-pinch-zoom: ; --tw-scroll-snap-strictness: proximity; --tw-ordinal: ; --tw-slashed-zero: ; --tw-numeric-figure: ; --tw-numeric-spacing: ; --tw-numeric-fraction: ; --tw-ring-inset: ; --tw-ring-offset-width: 0px; --tw-ring-offset-color: #fff; --tw-ring-color: rgb(59 130 246 / 0.5); --tw-ring-offset-shadow: 0 0 #0000; --tw-ring-shadow: 0 0 #0000; --tw-shadow: 0 0 #0000; --tw-shadow-colored: 0 0 #0000; --tw-blur: ; --tw-brightness: ; --tw-contrast: ; --tw-grayscale: ; --tw-hue-rotate: ; --tw-invert: ; --tw-saturate: ; --tw-sepia: ; --tw-drop-shadow: ; --tw-backdrop-blur: ; --tw-backdrop-brightness: ; --tw-backdrop-contrast: ; --tw-backdrop-grayscale: ; --tw-backdrop-hue-rotate: ; --tw-backdrop-invert: ; --tw-backdrop-opacity: ; --tw-backdrop-saturate: ; --tw-backdrop-sepia: ; border-color: var(--border-color); font-size: 7px;&quot;&gt;Amino acid&#39;s Embedding&lt;/b&gt;" style="rounded=0;whiteSpace=wrap;html=1;" parent="1" vertex="1">
          <mxGeometry x="-180" y="325" width="90" height="20" as="geometry" />
        </mxCell>
        <mxCell id="qwD3XdrIpNs9pehdpU2p-28" value="&lt;b style=&quot;--tw-border-spacing-x: 0; --tw-border-spacing-y: 0; --tw-translate-x: 0; --tw-translate-y: 0; --tw-rotate: 0; --tw-skew-x: 0; --tw-skew-y: 0; --tw-scale-x: 1; --tw-scale-y: 1; --tw-pan-x: ; --tw-pan-y: ; --tw-pinch-zoom: ; --tw-scroll-snap-strictness: proximity; --tw-ordinal: ; --tw-slashed-zero: ; --tw-numeric-figure: ; --tw-numeric-spacing: ; --tw-numeric-fraction: ; --tw-ring-inset: ; --tw-ring-offset-width: 0px; --tw-ring-offset-color: #fff; --tw-ring-color: rgb(59 130 246 / 0.5); --tw-ring-offset-shadow: 0 0 #0000; --tw-ring-shadow: 0 0 #0000; --tw-shadow: 0 0 #0000; --tw-shadow-colored: 0 0 #0000; --tw-blur: ; --tw-brightness: ; --tw-contrast: ; --tw-grayscale: ; --tw-hue-rotate: ; --tw-invert: ; --tw-saturate: ; --tw-sepia: ; --tw-drop-shadow: ; --tw-backdrop-blur: ; --tw-backdrop-brightness: ; --tw-backdrop-contrast: ; --tw-backdrop-grayscale: ; --tw-backdrop-hue-rotate: ; --tw-backdrop-invert: ; --tw-backdrop-opacity: ; --tw-backdrop-saturate: ; --tw-backdrop-sepia: ; border-color: var(--border-color); font-size: 7px;&quot;&gt;Amino acid&#39;s Embedding&lt;/b&gt;" style="rounded=0;whiteSpace=wrap;html=1;" parent="1" vertex="1">
          <mxGeometry x="-180" y="445" width="90" height="20" as="geometry" />
        </mxCell>
        <mxCell id="qwD3XdrIpNs9pehdpU2p-29" value="&lt;b style=&quot;--tw-border-spacing-x: 0; --tw-border-spacing-y: 0; --tw-translate-x: 0; --tw-translate-y: 0; --tw-rotate: 0; --tw-skew-x: 0; --tw-skew-y: 0; --tw-scale-x: 1; --tw-scale-y: 1; --tw-pan-x: ; --tw-pan-y: ; --tw-pinch-zoom: ; --tw-scroll-snap-strictness: proximity; --tw-ordinal: ; --tw-slashed-zero: ; --tw-numeric-figure: ; --tw-numeric-spacing: ; --tw-numeric-fraction: ; --tw-ring-inset: ; --tw-ring-offset-width: 0px; --tw-ring-offset-color: #fff; --tw-ring-color: rgb(59 130 246 / 0.5); --tw-ring-offset-shadow: 0 0 #0000; --tw-ring-shadow: 0 0 #0000; --tw-shadow: 0 0 #0000; --tw-shadow-colored: 0 0 #0000; --tw-blur: ; --tw-brightness: ; --tw-contrast: ; --tw-grayscale: ; --tw-hue-rotate: ; --tw-invert: ; --tw-saturate: ; --tw-sepia: ; --tw-drop-shadow: ; --tw-backdrop-blur: ; --tw-backdrop-brightness: ; --tw-backdrop-contrast: ; --tw-backdrop-grayscale: ; --tw-backdrop-hue-rotate: ; --tw-backdrop-invert: ; --tw-backdrop-opacity: ; --tw-backdrop-saturate: ; --tw-backdrop-sepia: ; border-color: var(--border-color); font-size: 7px;&quot;&gt;[SEP] Token Embedding&lt;/b&gt;" style="rounded=0;whiteSpace=wrap;html=1;" parent="1" vertex="1">
          <mxGeometry x="-180" y="485" width="90" height="20" as="geometry" />
        </mxCell>
        <mxCell id="qwD3XdrIpNs9pehdpU2p-31" value="" style="shape=crossbar;whiteSpace=wrap;html=1;rounded=1;" parent="1" vertex="1">
          <mxGeometry x="-180" y="215" width="90" height="20" as="geometry" />
        </mxCell>
        <mxCell id="qwD3XdrIpNs9pehdpU2p-32" value="&lt;font style=&quot;font-size: 9px;&quot;&gt;1024&lt;/font&gt;" style="text;html=1;align=center;verticalAlign=middle;resizable=0;points=[];autosize=1;strokeColor=none;fillColor=none;" parent="1" vertex="1">
          <mxGeometry x="-160" y="200" width="40" height="30" as="geometry" />
        </mxCell>
        <mxCell id="qwD3XdrIpNs9pehdpU2p-33" value="" style="rounded=0;whiteSpace=wrap;html=1;fillColor=#000000;" parent="1" vertex="1">
          <mxGeometry x="-145" y="355" width="10" height="10" as="geometry" />
        </mxCell>
        <mxCell id="qwD3XdrIpNs9pehdpU2p-34" value="" style="rounded=0;whiteSpace=wrap;html=1;fillColor=#000000;" parent="1" vertex="1">
          <mxGeometry x="-145" y="385" width="10" height="10" as="geometry" />
        </mxCell>
        <mxCell id="qwD3XdrIpNs9pehdpU2p-35" value="" style="rounded=0;whiteSpace=wrap;html=1;fillColor=#000000;" parent="1" vertex="1">
          <mxGeometry x="-145" y="415" width="10" height="10" as="geometry" />
        </mxCell>
        <mxCell id="qwD3XdrIpNs9pehdpU2p-40" value="" style="edgeStyle=segmentEdgeStyle;endArrow=classic;html=1;curved=0;rounded=0;endSize=8;startSize=8;" parent="1" edge="1">
          <mxGeometry width="50" height="50" relative="1" as="geometry">
            <mxPoint x="-80" y="255" as="sourcePoint" />
            <mxPoint x="-10" y="275" as="targetPoint" />
          </mxGeometry>
        </mxCell>
        <mxCell id="qwD3XdrIpNs9pehdpU2p-42" value="" style="rounded=0;whiteSpace=wrap;html=1;fillColor=#f8cecc;strokeColor=#b85450;" parent="1" vertex="1">
          <mxGeometry y="295" width="20" height="130" as="geometry" />
        </mxCell>
        <mxCell id="qwD3XdrIpNs9pehdpU2p-51" value="&lt;font style=&quot;font-size: 10px;&quot;&gt;&lt;b&gt;Fully Connected Linear Layers and ReLU activation functions&lt;br&gt;(Trainable Parameters)&lt;br&gt;&lt;br&gt;&lt;/b&gt;&lt;/font&gt;" style="rounded=0;whiteSpace=wrap;html=1;dashed=1;fillColor=#d5e8d4;strokeColor=#82b366;" parent="1" vertex="1">
          <mxGeometry x="80" y="295" width="160" height="130" as="geometry" />
        </mxCell>
        <mxCell id="qwD3XdrIpNs9pehdpU2p-52" value="" style="endArrow=classic;html=1;rounded=0;" parent="1" edge="1">
          <mxGeometry width="50" height="50" relative="1" as="geometry">
            <mxPoint x="30" y="360" as="sourcePoint" />
            <mxPoint x="70" y="360" as="targetPoint" />
          </mxGeometry>
        </mxCell>
        <mxCell id="qwD3XdrIpNs9pehdpU2p-53" value="" style="endArrow=classic;html=1;rounded=0;entryX=0.081;entryY=0;entryDx=0;entryDy=0;entryPerimeter=0;" parent="1" target="qwD3XdrIpNs9pehdpU2p-55" edge="1">
          <mxGeometry width="50" height="50" relative="1" as="geometry">
            <mxPoint x="251" y="314.33" as="sourcePoint" />
            <mxPoint x="281" y="314.33" as="targetPoint" />
          </mxGeometry>
        </mxCell>
        <mxCell id="qwD3XdrIpNs9pehdpU2p-54" value="" style="rounded=0;whiteSpace=wrap;html=1;" parent="1" vertex="1">
          <mxGeometry x="300" y="305" width="30" height="20" as="geometry" />
        </mxCell>
        <mxCell id="qwD3XdrIpNs9pehdpU2p-55" value="&lt;font style=&quot;font-size: 7px;&quot;&gt;Prediction value&lt;/font&gt;" style="text;html=1;align=center;verticalAlign=middle;resizable=0;points=[];autosize=1;strokeColor=none;fillColor=none;" parent="1" vertex="1">
          <mxGeometry x="280" y="315" width="70" height="30" as="geometry" />
        </mxCell>
        <mxCell id="k0mLrdQfxI_wprc-yUOU-1" value="&lt;font style=&quot;font-size: 10px;&quot;&gt;&lt;b&gt;Concatenated Protein Pairs Input of Length L&lt;/b&gt;&lt;/font&gt;" style="text;html=1;align=center;verticalAlign=middle;resizable=0;points=[];autosize=1;strokeColor=none;fillColor=none;" parent="1" vertex="1">
          <mxGeometry x="-810" y="160" width="240" height="30" as="geometry" />
        </mxCell>
        <mxCell id="k0mLrdQfxI_wprc-yUOU-2" value="&lt;font style=&quot;font-size: 10px;&quot;&gt;&lt;b&gt;Pretrained ProteinBertBFD&lt;/b&gt;&lt;/font&gt;" style="text;html=1;align=center;verticalAlign=middle;resizable=0;points=[];autosize=1;strokeColor=none;fillColor=none;" parent="1" vertex="1">
          <mxGeometry x="-490" y="160" width="150" height="30" as="geometry" />
        </mxCell>
        <mxCell id="k0mLrdQfxI_wprc-yUOU-3" value="&lt;b&gt;&lt;font style=&quot;font-size: 10px;&quot;&gt;Embedding vectors from ProtBert&lt;/font&gt;&lt;/b&gt;" style="text;html=1;align=center;verticalAlign=middle;resizable=0;points=[];autosize=1;strokeColor=none;fillColor=none;" parent="1" vertex="1">
          <mxGeometry x="-230" y="160" width="180" height="30" as="geometry" />
        </mxCell>
        <mxCell id="k0mLrdQfxI_wprc-yUOU-4" value="&lt;font style=&quot;font-size: 10px;&quot;&gt;&lt;b&gt;[CLS] Embedding&lt;/b&gt;&lt;/font&gt;" style="text;html=1;align=center;verticalAlign=middle;resizable=0;points=[];autosize=1;strokeColor=none;fillColor=none;" parent="1" vertex="1">
          <mxGeometry x="-35" y="160" width="110" height="30" as="geometry" />
        </mxCell>
        <mxCell id="k0mLrdQfxI_wprc-yUOU-5" value="&lt;font style=&quot;font-size: 10px;&quot;&gt;&lt;b&gt;Fully connected Neural networks&lt;/b&gt;&lt;/font&gt;" style="text;html=1;align=center;verticalAlign=middle;resizable=0;points=[];autosize=1;strokeColor=none;fillColor=none;" parent="1" vertex="1">
          <mxGeometry x="80" y="160" width="180" height="30" as="geometry" />
        </mxCell>
        <mxCell id="k0mLrdQfxI_wprc-yUOU-8" value="" style="endArrow=classic;html=1;rounded=0;" parent="1" edge="1">
          <mxGeometry width="50" height="50" relative="1" as="geometry">
            <mxPoint x="-570" y="174.5" as="sourcePoint" />
            <mxPoint x="-490" y="174.5" as="targetPoint" />
          </mxGeometry>
        </mxCell>
        <mxCell id="k0mLrdQfxI_wprc-yUOU-9" value="" style="endArrow=classic;html=1;rounded=0;" parent="1" edge="1">
          <mxGeometry width="50" height="50" relative="1" as="geometry">
            <mxPoint x="-320" y="174.5" as="sourcePoint" />
            <mxPoint x="-240" y="174.5" as="targetPoint" />
          </mxGeometry>
        </mxCell>
        <mxCell id="k0mLrdQfxI_wprc-yUOU-10" value="" style="endArrow=classic;html=1;rounded=0;" parent="1" edge="1">
          <mxGeometry width="50" height="50" relative="1" as="geometry">
            <mxPoint x="-50" y="174.5" as="sourcePoint" />
            <mxPoint x="-30" y="175" as="targetPoint" />
          </mxGeometry>
        </mxCell>
        <mxCell id="k0mLrdQfxI_wprc-yUOU-11" value="" style="endArrow=classic;html=1;rounded=0;" parent="1" source="k0mLrdQfxI_wprc-yUOU-4" edge="1">
          <mxGeometry width="50" height="50" relative="1" as="geometry">
            <mxPoint x="-40" y="184.5" as="sourcePoint" />
            <mxPoint x="90" y="176" as="targetPoint" />
            <Array as="points">
              <mxPoint x="70" y="176" />
            </Array>
          </mxGeometry>
        </mxCell>
        <mxCell id="k0mLrdQfxI_wprc-yUOU-14" value="&lt;div style=&quot;text-align: center;&quot;&gt;&lt;span style=&quot;background-color: initial; font-size: 10px;&quot;&gt;&lt;b&gt;&amp;nbsp; (Non-trainable parameters)&lt;/b&gt;&lt;/span&gt;&lt;/div&gt;" style="text;whiteSpace=wrap;html=1;" parent="1" vertex="1">
          <mxGeometry x="-487" y="175" width="160" height="40" as="geometry" />
        </mxCell>
      </root>
    </mxGraphModel>
  </diagram>
  <diagram id="d9dtyMVGl8ZPF6uggUnZ" name="Page-2">
    <mxGraphModel dx="2514" dy="927" grid="1" gridSize="10" guides="1" tooltips="1" connect="1" arrows="1" fold="1" page="1" pageScale="1" pageWidth="827" pageHeight="1169" math="0" shadow="0">
      <root>
        <mxCell id="0" />
        <mxCell id="1" parent="0" />
        <mxCell id="06sFZ4By2TGN8680QIdF-1" value="[CLS] + Protein P + [SEP]" style="shape=step;perimeter=stepPerimeter;whiteSpace=wrap;html=1;fixedSize=1;fillColor=#fff2cc;strokeColor=#d6b656;" parent="1" vertex="1">
          <mxGeometry x="-800" y="345" width="259" height="50" as="geometry" />
        </mxCell>
        <mxCell id="06sFZ4By2TGN8680QIdF-2" value="&lt;b&gt;Pretrained ProteinBertBFD&lt;br&gt;&lt;font style=&quot;font-size: 10px;&quot;&gt;(Parameters are freezed)&lt;/font&gt;&lt;/b&gt;" style="rounded=1;whiteSpace=wrap;html=1;fillColor=#dae8fc;strokeColor=#6c8ebf;" parent="1" vertex="1">
          <mxGeometry x="-530" y="225" width="246" height="290" as="geometry" />
        </mxCell>
        <mxCell id="06sFZ4By2TGN8680QIdF-3" value="" style="endArrow=none;dashed=1;html=1;rounded=0;entryX=0.885;entryY=0;entryDx=0;entryDy=0;entryPerimeter=0;exitX=0.885;exitY=1;exitDx=0;exitDy=0;exitPerimeter=0;" parent="1" source="06sFZ4By2TGN8680QIdF-2" target="06sFZ4By2TGN8680QIdF-2" edge="1">
          <mxGeometry width="50" height="50" relative="1" as="geometry">
            <mxPoint x="-320" y="315" as="sourcePoint" />
            <mxPoint x="-270" y="265" as="targetPoint" />
          </mxGeometry>
        </mxCell>
        <mxCell id="06sFZ4By2TGN8680QIdF-4" value="" style="endArrow=classic;html=1;rounded=0;" parent="1" edge="1">
          <mxGeometry width="50" height="50" relative="1" as="geometry">
            <mxPoint x="-270" y="255" as="sourcePoint" />
            <mxPoint x="-190" y="255" as="targetPoint" />
          </mxGeometry>
        </mxCell>
        <mxCell id="06sFZ4By2TGN8680QIdF-5" value="" style="endArrow=classic;html=1;rounded=0;" parent="1" edge="1">
          <mxGeometry width="50" height="50" relative="1" as="geometry">
            <mxPoint x="-270" y="495" as="sourcePoint" />
            <mxPoint x="-190" y="495" as="targetPoint" />
          </mxGeometry>
        </mxCell>
        <mxCell id="06sFZ4By2TGN8680QIdF-6" value="" style="endArrow=classic;html=1;rounded=0;" parent="1" edge="1">
          <mxGeometry width="50" height="50" relative="1" as="geometry">
            <mxPoint x="-270" y="295" as="sourcePoint" />
            <mxPoint x="-190" y="295" as="targetPoint" />
          </mxGeometry>
        </mxCell>
        <mxCell id="06sFZ4By2TGN8680QIdF-7" value="" style="endArrow=classic;html=1;rounded=0;" parent="1" edge="1">
          <mxGeometry width="50" height="50" relative="1" as="geometry">
            <mxPoint x="-270" y="335" as="sourcePoint" />
            <mxPoint x="-190" y="335" as="targetPoint" />
          </mxGeometry>
        </mxCell>
        <mxCell id="06sFZ4By2TGN8680QIdF-8" value="" style="endArrow=classic;html=1;rounded=0;" parent="1" edge="1">
          <mxGeometry width="50" height="50" relative="1" as="geometry">
            <mxPoint x="-270" y="455" as="sourcePoint" />
            <mxPoint x="-190" y="455" as="targetPoint" />
          </mxGeometry>
        </mxCell>
        <mxCell id="06sFZ4By2TGN8680QIdF-9" value="&lt;font style=&quot;font-size: 7px;&quot;&gt;&lt;b&gt;[CLS] Token Embedding&lt;/b&gt;&lt;/font&gt;" style="rounded=0;whiteSpace=wrap;html=1;fillColor=#f8cecc;strokeColor=#b85450;gradientColor=#ea6b66;" parent="1" vertex="1">
          <mxGeometry x="-180" y="245" width="90" height="20" as="geometry" />
        </mxCell>
        <mxCell id="06sFZ4By2TGN8680QIdF-10" value="&lt;font style=&quot;font-size: 7px;&quot;&gt;&lt;b&gt;Amino acid&#39;s Embedding&lt;/b&gt;&lt;/font&gt;" style="rounded=0;whiteSpace=wrap;html=1;" parent="1" vertex="1">
          <mxGeometry x="-180" y="285" width="90" height="20" as="geometry" />
        </mxCell>
        <mxCell id="06sFZ4By2TGN8680QIdF-11" value="&lt;b style=&quot;--tw-border-spacing-x: 0; --tw-border-spacing-y: 0; --tw-translate-x: 0; --tw-translate-y: 0; --tw-rotate: 0; --tw-skew-x: 0; --tw-skew-y: 0; --tw-scale-x: 1; --tw-scale-y: 1; --tw-pan-x: ; --tw-pan-y: ; --tw-pinch-zoom: ; --tw-scroll-snap-strictness: proximity; --tw-ordinal: ; --tw-slashed-zero: ; --tw-numeric-figure: ; --tw-numeric-spacing: ; --tw-numeric-fraction: ; --tw-ring-inset: ; --tw-ring-offset-width: 0px; --tw-ring-offset-color: #fff; --tw-ring-color: rgb(59 130 246 / 0.5); --tw-ring-offset-shadow: 0 0 #0000; --tw-ring-shadow: 0 0 #0000; --tw-shadow: 0 0 #0000; --tw-shadow-colored: 0 0 #0000; --tw-blur: ; --tw-brightness: ; --tw-contrast: ; --tw-grayscale: ; --tw-hue-rotate: ; --tw-invert: ; --tw-saturate: ; --tw-sepia: ; --tw-drop-shadow: ; --tw-backdrop-blur: ; --tw-backdrop-brightness: ; --tw-backdrop-contrast: ; --tw-backdrop-grayscale: ; --tw-backdrop-hue-rotate: ; --tw-backdrop-invert: ; --tw-backdrop-opacity: ; --tw-backdrop-saturate: ; --tw-backdrop-sepia: ; border-color: var(--border-color); font-size: 7px;&quot;&gt;Amino acid&#39;s Embedding&lt;/b&gt;" style="rounded=0;whiteSpace=wrap;html=1;" parent="1" vertex="1">
          <mxGeometry x="-180" y="325" width="90" height="20" as="geometry" />
        </mxCell>
        <mxCell id="06sFZ4By2TGN8680QIdF-12" value="&lt;b style=&quot;--tw-border-spacing-x: 0; --tw-border-spacing-y: 0; --tw-translate-x: 0; --tw-translate-y: 0; --tw-rotate: 0; --tw-skew-x: 0; --tw-skew-y: 0; --tw-scale-x: 1; --tw-scale-y: 1; --tw-pan-x: ; --tw-pan-y: ; --tw-pinch-zoom: ; --tw-scroll-snap-strictness: proximity; --tw-ordinal: ; --tw-slashed-zero: ; --tw-numeric-figure: ; --tw-numeric-spacing: ; --tw-numeric-fraction: ; --tw-ring-inset: ; --tw-ring-offset-width: 0px; --tw-ring-offset-color: #fff; --tw-ring-color: rgb(59 130 246 / 0.5); --tw-ring-offset-shadow: 0 0 #0000; --tw-ring-shadow: 0 0 #0000; --tw-shadow: 0 0 #0000; --tw-shadow-colored: 0 0 #0000; --tw-blur: ; --tw-brightness: ; --tw-contrast: ; --tw-grayscale: ; --tw-hue-rotate: ; --tw-invert: ; --tw-saturate: ; --tw-sepia: ; --tw-drop-shadow: ; --tw-backdrop-blur: ; --tw-backdrop-brightness: ; --tw-backdrop-contrast: ; --tw-backdrop-grayscale: ; --tw-backdrop-hue-rotate: ; --tw-backdrop-invert: ; --tw-backdrop-opacity: ; --tw-backdrop-saturate: ; --tw-backdrop-sepia: ; border-color: var(--border-color); font-size: 7px;&quot;&gt;Amino acid&#39;s Embedding&lt;/b&gt;" style="rounded=0;whiteSpace=wrap;html=1;" parent="1" vertex="1">
          <mxGeometry x="-180" y="445" width="90" height="20" as="geometry" />
        </mxCell>
        <mxCell id="06sFZ4By2TGN8680QIdF-13" value="&lt;b style=&quot;--tw-border-spacing-x: 0; --tw-border-spacing-y: 0; --tw-translate-x: 0; --tw-translate-y: 0; --tw-rotate: 0; --tw-skew-x: 0; --tw-skew-y: 0; --tw-scale-x: 1; --tw-scale-y: 1; --tw-pan-x: ; --tw-pan-y: ; --tw-pinch-zoom: ; --tw-scroll-snap-strictness: proximity; --tw-ordinal: ; --tw-slashed-zero: ; --tw-numeric-figure: ; --tw-numeric-spacing: ; --tw-numeric-fraction: ; --tw-ring-inset: ; --tw-ring-offset-width: 0px; --tw-ring-offset-color: #fff; --tw-ring-color: rgb(59 130 246 / 0.5); --tw-ring-offset-shadow: 0 0 #0000; --tw-ring-shadow: 0 0 #0000; --tw-shadow: 0 0 #0000; --tw-shadow-colored: 0 0 #0000; --tw-blur: ; --tw-brightness: ; --tw-contrast: ; --tw-grayscale: ; --tw-hue-rotate: ; --tw-invert: ; --tw-saturate: ; --tw-sepia: ; --tw-drop-shadow: ; --tw-backdrop-blur: ; --tw-backdrop-brightness: ; --tw-backdrop-contrast: ; --tw-backdrop-grayscale: ; --tw-backdrop-hue-rotate: ; --tw-backdrop-invert: ; --tw-backdrop-opacity: ; --tw-backdrop-saturate: ; --tw-backdrop-sepia: ; border-color: var(--border-color); font-size: 7px;&quot;&gt;[SEP] Token Embedding&lt;/b&gt;" style="rounded=0;whiteSpace=wrap;html=1;" parent="1" vertex="1">
          <mxGeometry x="-180" y="485" width="90" height="20" as="geometry" />
        </mxCell>
        <mxCell id="06sFZ4By2TGN8680QIdF-14" value="" style="shape=crossbar;whiteSpace=wrap;html=1;rounded=1;" parent="1" vertex="1">
          <mxGeometry x="-180" y="215" width="90" height="20" as="geometry" />
        </mxCell>
        <mxCell id="06sFZ4By2TGN8680QIdF-15" value="&lt;font style=&quot;font-size: 9px;&quot;&gt;1024&lt;/font&gt;" style="text;html=1;align=center;verticalAlign=middle;resizable=0;points=[];autosize=1;strokeColor=none;fillColor=none;" parent="1" vertex="1">
          <mxGeometry x="-160" y="200" width="40" height="30" as="geometry" />
        </mxCell>
        <mxCell id="06sFZ4By2TGN8680QIdF-16" value="" style="rounded=0;whiteSpace=wrap;html=1;fillColor=#000000;" parent="1" vertex="1">
          <mxGeometry x="-145" y="355" width="10" height="10" as="geometry" />
        </mxCell>
        <mxCell id="06sFZ4By2TGN8680QIdF-17" value="" style="rounded=0;whiteSpace=wrap;html=1;fillColor=#000000;" parent="1" vertex="1">
          <mxGeometry x="-145" y="385" width="10" height="10" as="geometry" />
        </mxCell>
        <mxCell id="06sFZ4By2TGN8680QIdF-18" value="" style="rounded=0;whiteSpace=wrap;html=1;fillColor=#000000;" parent="1" vertex="1">
          <mxGeometry x="-145" y="415" width="10" height="10" as="geometry" />
        </mxCell>
        <mxCell id="06sFZ4By2TGN8680QIdF-19" value="" style="edgeStyle=segmentEdgeStyle;endArrow=classic;html=1;curved=0;rounded=0;endSize=8;startSize=8;" parent="1" edge="1">
          <mxGeometry width="50" height="50" relative="1" as="geometry">
            <mxPoint x="-80" y="255" as="sourcePoint" />
            <mxPoint x="70" y="440" as="targetPoint" />
          </mxGeometry>
        </mxCell>
        <mxCell id="06sFZ4By2TGN8680QIdF-20" value="" style="rounded=0;whiteSpace=wrap;html=1;fillColor=#f8cecc;strokeColor=#b85450;gradientColor=#ea6b66;" parent="1" vertex="1">
          <mxGeometry x="60" y="445" width="20" height="155" as="geometry" />
        </mxCell>
        <mxCell id="06sFZ4By2TGN8680QIdF-21" value="&lt;font style=&quot;font-size: 10px;&quot;&gt;&lt;b&gt;Convolutional Layers and Fully Connected Linear Layers with ReLU activation functions&lt;br&gt;(Trainable Parameters)&lt;br&gt;&lt;br&gt;&lt;/b&gt;&lt;/font&gt;" style="rounded=0;whiteSpace=wrap;html=1;dashed=1;fillColor=#d5e8d4;strokeColor=#82b366;" parent="1" vertex="1">
          <mxGeometry x="280" y="457.5" width="160" height="130" as="geometry" />
        </mxCell>
        <mxCell id="06sFZ4By2TGN8680QIdF-23" value="" style="endArrow=classic;html=1;rounded=0;" parent="1" edge="1">
          <mxGeometry width="50" height="50" relative="1" as="geometry">
            <mxPoint x="440" y="467.5" as="sourcePoint" />
            <mxPoint x="470" y="467.5" as="targetPoint" />
          </mxGeometry>
        </mxCell>
        <mxCell id="06sFZ4By2TGN8680QIdF-24" value="" style="rounded=0;whiteSpace=wrap;html=1;" parent="1" vertex="1">
          <mxGeometry x="480" y="457.5" width="30" height="20" as="geometry" />
        </mxCell>
        <mxCell id="06sFZ4By2TGN8680QIdF-25" value="&lt;font style=&quot;font-size: 7px;&quot;&gt;Prediction value&lt;/font&gt;" style="text;html=1;align=center;verticalAlign=middle;resizable=0;points=[];autosize=1;strokeColor=none;fillColor=none;" parent="1" vertex="1">
          <mxGeometry x="464" y="477.5" width="70" height="30" as="geometry" />
        </mxCell>
        <mxCell id="ATK8ujJDHcrol4FEeHrM-1" value="[CLS] + Protein P&#39; + [SEP]" style="shape=step;perimeter=stepPerimeter;whiteSpace=wrap;html=1;fixedSize=1;fillColor=#fff2cc;strokeColor=#d6b656;" parent="1" vertex="1">
          <mxGeometry x="-800" y="765" width="259" height="50" as="geometry" />
        </mxCell>
        <mxCell id="ATK8ujJDHcrol4FEeHrM-2" value="&lt;b&gt;Pretrained ProteinBertBFD&lt;br&gt;&lt;font style=&quot;font-size: 10px;&quot;&gt;(Parameters are freezed)&lt;/font&gt;&lt;/b&gt;" style="rounded=1;whiteSpace=wrap;html=1;fillColor=#dae8fc;strokeColor=#6c8ebf;" parent="1" vertex="1">
          <mxGeometry x="-530" y="645" width="246" height="290" as="geometry" />
        </mxCell>
        <mxCell id="ATK8ujJDHcrol4FEeHrM-3" value="" style="endArrow=none;dashed=1;html=1;rounded=0;entryX=0.885;entryY=0;entryDx=0;entryDy=0;entryPerimeter=0;exitX=0.885;exitY=1;exitDx=0;exitDy=0;exitPerimeter=0;" parent="1" source="ATK8ujJDHcrol4FEeHrM-2" target="ATK8ujJDHcrol4FEeHrM-2" edge="1">
          <mxGeometry width="50" height="50" relative="1" as="geometry">
            <mxPoint x="-320" y="735" as="sourcePoint" />
            <mxPoint x="-270" y="685" as="targetPoint" />
          </mxGeometry>
        </mxCell>
        <mxCell id="ATK8ujJDHcrol4FEeHrM-4" value="" style="endArrow=classic;html=1;rounded=0;" parent="1" edge="1">
          <mxGeometry width="50" height="50" relative="1" as="geometry">
            <mxPoint x="-270" y="675" as="sourcePoint" />
            <mxPoint x="-190" y="675" as="targetPoint" />
          </mxGeometry>
        </mxCell>
        <mxCell id="ATK8ujJDHcrol4FEeHrM-5" value="" style="endArrow=classic;html=1;rounded=0;" parent="1" edge="1">
          <mxGeometry width="50" height="50" relative="1" as="geometry">
            <mxPoint x="-270" y="915" as="sourcePoint" />
            <mxPoint x="-190" y="915" as="targetPoint" />
          </mxGeometry>
        </mxCell>
        <mxCell id="ATK8ujJDHcrol4FEeHrM-6" value="" style="endArrow=classic;html=1;rounded=0;" parent="1" edge="1">
          <mxGeometry width="50" height="50" relative="1" as="geometry">
            <mxPoint x="-270" y="715" as="sourcePoint" />
            <mxPoint x="-190" y="715" as="targetPoint" />
          </mxGeometry>
        </mxCell>
        <mxCell id="ATK8ujJDHcrol4FEeHrM-7" value="" style="endArrow=classic;html=1;rounded=0;" parent="1" edge="1">
          <mxGeometry width="50" height="50" relative="1" as="geometry">
            <mxPoint x="-270" y="755" as="sourcePoint" />
            <mxPoint x="-190" y="755" as="targetPoint" />
          </mxGeometry>
        </mxCell>
        <mxCell id="ATK8ujJDHcrol4FEeHrM-8" value="" style="endArrow=classic;html=1;rounded=0;" parent="1" edge="1">
          <mxGeometry width="50" height="50" relative="1" as="geometry">
            <mxPoint x="-270" y="875" as="sourcePoint" />
            <mxPoint x="-190" y="875" as="targetPoint" />
          </mxGeometry>
        </mxCell>
        <mxCell id="ATK8ujJDHcrol4FEeHrM-9" value="&lt;font style=&quot;font-size: 7px;&quot;&gt;&lt;b&gt;[CLS] Token Embedding&lt;/b&gt;&lt;/font&gt;" style="rounded=0;whiteSpace=wrap;html=1;fillColor=#d5e8d4;strokeColor=#82b366;" parent="1" vertex="1">
          <mxGeometry x="-180" y="665" width="90" height="20" as="geometry" />
        </mxCell>
        <mxCell id="ATK8ujJDHcrol4FEeHrM-10" value="&lt;font style=&quot;font-size: 7px;&quot;&gt;&lt;b&gt;Amino acid&#39;s Embedding&lt;/b&gt;&lt;/font&gt;" style="rounded=0;whiteSpace=wrap;html=1;" parent="1" vertex="1">
          <mxGeometry x="-180" y="705" width="90" height="20" as="geometry" />
        </mxCell>
        <mxCell id="ATK8ujJDHcrol4FEeHrM-11" value="&lt;b style=&quot;--tw-border-spacing-x: 0; --tw-border-spacing-y: 0; --tw-translate-x: 0; --tw-translate-y: 0; --tw-rotate: 0; --tw-skew-x: 0; --tw-skew-y: 0; --tw-scale-x: 1; --tw-scale-y: 1; --tw-pan-x: ; --tw-pan-y: ; --tw-pinch-zoom: ; --tw-scroll-snap-strictness: proximity; --tw-ordinal: ; --tw-slashed-zero: ; --tw-numeric-figure: ; --tw-numeric-spacing: ; --tw-numeric-fraction: ; --tw-ring-inset: ; --tw-ring-offset-width: 0px; --tw-ring-offset-color: #fff; --tw-ring-color: rgb(59 130 246 / 0.5); --tw-ring-offset-shadow: 0 0 #0000; --tw-ring-shadow: 0 0 #0000; --tw-shadow: 0 0 #0000; --tw-shadow-colored: 0 0 #0000; --tw-blur: ; --tw-brightness: ; --tw-contrast: ; --tw-grayscale: ; --tw-hue-rotate: ; --tw-invert: ; --tw-saturate: ; --tw-sepia: ; --tw-drop-shadow: ; --tw-backdrop-blur: ; --tw-backdrop-brightness: ; --tw-backdrop-contrast: ; --tw-backdrop-grayscale: ; --tw-backdrop-hue-rotate: ; --tw-backdrop-invert: ; --tw-backdrop-opacity: ; --tw-backdrop-saturate: ; --tw-backdrop-sepia: ; border-color: var(--border-color); font-size: 7px;&quot;&gt;Amino acid&#39;s Embedding&lt;/b&gt;" style="rounded=0;whiteSpace=wrap;html=1;" parent="1" vertex="1">
          <mxGeometry x="-180" y="745" width="90" height="20" as="geometry" />
        </mxCell>
        <mxCell id="ATK8ujJDHcrol4FEeHrM-12" value="&lt;b style=&quot;--tw-border-spacing-x: 0; --tw-border-spacing-y: 0; --tw-translate-x: 0; --tw-translate-y: 0; --tw-rotate: 0; --tw-skew-x: 0; --tw-skew-y: 0; --tw-scale-x: 1; --tw-scale-y: 1; --tw-pan-x: ; --tw-pan-y: ; --tw-pinch-zoom: ; --tw-scroll-snap-strictness: proximity; --tw-ordinal: ; --tw-slashed-zero: ; --tw-numeric-figure: ; --tw-numeric-spacing: ; --tw-numeric-fraction: ; --tw-ring-inset: ; --tw-ring-offset-width: 0px; --tw-ring-offset-color: #fff; --tw-ring-color: rgb(59 130 246 / 0.5); --tw-ring-offset-shadow: 0 0 #0000; --tw-ring-shadow: 0 0 #0000; --tw-shadow: 0 0 #0000; --tw-shadow-colored: 0 0 #0000; --tw-blur: ; --tw-brightness: ; --tw-contrast: ; --tw-grayscale: ; --tw-hue-rotate: ; --tw-invert: ; --tw-saturate: ; --tw-sepia: ; --tw-drop-shadow: ; --tw-backdrop-blur: ; --tw-backdrop-brightness: ; --tw-backdrop-contrast: ; --tw-backdrop-grayscale: ; --tw-backdrop-hue-rotate: ; --tw-backdrop-invert: ; --tw-backdrop-opacity: ; --tw-backdrop-saturate: ; --tw-backdrop-sepia: ; border-color: var(--border-color); font-size: 7px;&quot;&gt;Amino acid&#39;s Embedding&lt;/b&gt;" style="rounded=0;whiteSpace=wrap;html=1;" parent="1" vertex="1">
          <mxGeometry x="-180" y="865" width="90" height="20" as="geometry" />
        </mxCell>
        <mxCell id="ATK8ujJDHcrol4FEeHrM-13" value="&lt;b style=&quot;--tw-border-spacing-x: 0; --tw-border-spacing-y: 0; --tw-translate-x: 0; --tw-translate-y: 0; --tw-rotate: 0; --tw-skew-x: 0; --tw-skew-y: 0; --tw-scale-x: 1; --tw-scale-y: 1; --tw-pan-x: ; --tw-pan-y: ; --tw-pinch-zoom: ; --tw-scroll-snap-strictness: proximity; --tw-ordinal: ; --tw-slashed-zero: ; --tw-numeric-figure: ; --tw-numeric-spacing: ; --tw-numeric-fraction: ; --tw-ring-inset: ; --tw-ring-offset-width: 0px; --tw-ring-offset-color: #fff; --tw-ring-color: rgb(59 130 246 / 0.5); --tw-ring-offset-shadow: 0 0 #0000; --tw-ring-shadow: 0 0 #0000; --tw-shadow: 0 0 #0000; --tw-shadow-colored: 0 0 #0000; --tw-blur: ; --tw-brightness: ; --tw-contrast: ; --tw-grayscale: ; --tw-hue-rotate: ; --tw-invert: ; --tw-saturate: ; --tw-sepia: ; --tw-drop-shadow: ; --tw-backdrop-blur: ; --tw-backdrop-brightness: ; --tw-backdrop-contrast: ; --tw-backdrop-grayscale: ; --tw-backdrop-hue-rotate: ; --tw-backdrop-invert: ; --tw-backdrop-opacity: ; --tw-backdrop-saturate: ; --tw-backdrop-sepia: ; border-color: var(--border-color); font-size: 7px;&quot;&gt;[SEP] Token Embedding&lt;/b&gt;" style="rounded=0;whiteSpace=wrap;html=1;" parent="1" vertex="1">
          <mxGeometry x="-180" y="905" width="90" height="20" as="geometry" />
        </mxCell>
        <mxCell id="ATK8ujJDHcrol4FEeHrM-14" value="" style="shape=crossbar;whiteSpace=wrap;html=1;rounded=1;" parent="1" vertex="1">
          <mxGeometry x="-180" y="635" width="90" height="20" as="geometry" />
        </mxCell>
        <mxCell id="ATK8ujJDHcrol4FEeHrM-15" value="&lt;font style=&quot;font-size: 9px;&quot;&gt;1024&lt;/font&gt;" style="text;html=1;align=center;verticalAlign=middle;resizable=0;points=[];autosize=1;strokeColor=none;fillColor=none;" parent="1" vertex="1">
          <mxGeometry x="-160" y="620" width="40" height="30" as="geometry" />
        </mxCell>
        <mxCell id="ATK8ujJDHcrol4FEeHrM-16" value="" style="rounded=0;whiteSpace=wrap;html=1;fillColor=#000000;" parent="1" vertex="1">
          <mxGeometry x="-145" y="775" width="10" height="10" as="geometry" />
        </mxCell>
        <mxCell id="ATK8ujJDHcrol4FEeHrM-17" value="" style="rounded=0;whiteSpace=wrap;html=1;fillColor=#000000;" parent="1" vertex="1">
          <mxGeometry x="-145" y="805" width="10" height="10" as="geometry" />
        </mxCell>
        <mxCell id="ATK8ujJDHcrol4FEeHrM-18" value="" style="rounded=0;whiteSpace=wrap;html=1;fillColor=#000000;" parent="1" vertex="1">
          <mxGeometry x="-145" y="835" width="10" height="10" as="geometry" />
        </mxCell>
        <mxCell id="ATK8ujJDHcrol4FEeHrM-19" value="" style="edgeStyle=segmentEdgeStyle;endArrow=classic;html=1;curved=0;rounded=0;endSize=8;startSize=8;" parent="1" edge="1">
          <mxGeometry width="50" height="50" relative="1" as="geometry">
            <mxPoint x="-80" y="675" as="sourcePoint" />
            <mxPoint x="170" y="610" as="targetPoint" />
          </mxGeometry>
        </mxCell>
        <mxCell id="ATK8ujJDHcrol4FEeHrM-20" value="" style="rounded=0;whiteSpace=wrap;html=1;fillColor=#f8cecc;strokeColor=#b85450;" parent="1" vertex="1">
          <mxGeometry x="160" y="447.5" width="20" height="152.5" as="geometry" />
        </mxCell>
        <mxCell id="SnrRUgy0tnzbPF0rx7RP-2" value="" style="verticalLabelPosition=bottom;shadow=0;align=center;html=1;verticalAlign=top;shape=mxgraph.electrical.abstract.summation_point;" vertex="1" parent="1">
          <mxGeometry x="110" y="507.5" width="30" height="25" as="geometry" />
        </mxCell>
        <mxCell id="SnrRUgy0tnzbPF0rx7RP-3" value="" style="endArrow=classic;html=1;rounded=0;" edge="1" parent="1">
          <mxGeometry width="50" height="50" relative="1" as="geometry">
            <mxPoint x="190" y="519.5" as="sourcePoint" />
            <mxPoint x="270" y="519.5" as="targetPoint" />
          </mxGeometry>
        </mxCell>
        <mxCell id="nZrk-tRBo-uAZ6p1Nu0j-1" value="&lt;font style=&quot;font-size: 10px;&quot;&gt;&lt;b&gt;&amp;nbsp;Proteins Input of Length L&lt;/b&gt;&lt;/font&gt;" style="text;html=1;align=center;verticalAlign=middle;resizable=0;points=[];autosize=1;strokeColor=none;fillColor=none;" vertex="1" parent="1">
          <mxGeometry x="-755" y="170" width="150" height="30" as="geometry" />
        </mxCell>
        <mxCell id="nZrk-tRBo-uAZ6p1Nu0j-2" value="&lt;font style=&quot;font-size: 10px;&quot;&gt;&lt;b&gt;Pretrained ProteinBertBFD&lt;/b&gt;&lt;/font&gt;" style="text;html=1;align=center;verticalAlign=middle;resizable=0;points=[];autosize=1;strokeColor=none;fillColor=none;" vertex="1" parent="1">
          <mxGeometry x="-490" y="170" width="150" height="30" as="geometry" />
        </mxCell>
        <mxCell id="lpeuPYtHNBFwYKJ5nvoa-5" value="" style="edgeStyle=orthogonalEdgeStyle;rounded=0;orthogonalLoop=1;jettySize=auto;html=1;" edge="1" parent="1" source="nZrk-tRBo-uAZ6p1Nu0j-3" target="nZrk-tRBo-uAZ6p1Nu0j-4">
          <mxGeometry relative="1" as="geometry" />
        </mxCell>
        <mxCell id="nZrk-tRBo-uAZ6p1Nu0j-3" value="&lt;b&gt;&lt;font style=&quot;font-size: 10px;&quot;&gt;Embedding vectors from ProtBert&lt;/font&gt;&lt;/b&gt;" style="text;html=1;align=center;verticalAlign=middle;resizable=0;points=[];autosize=1;strokeColor=none;fillColor=none;" vertex="1" parent="1">
          <mxGeometry x="-225" y="170" width="180" height="30" as="geometry" />
        </mxCell>
        <mxCell id="nZrk-tRBo-uAZ6p1Nu0j-4" value="&lt;font style=&quot;font-size: 10px;&quot;&gt;&lt;b&gt;Element wise addition of Proteins&#39; [CLS] Embedding&lt;/b&gt;&lt;/font&gt;" style="text;html=1;align=center;verticalAlign=middle;resizable=0;points=[];autosize=1;strokeColor=none;fillColor=none;" vertex="1" parent="1">
          <mxGeometry x="-10" y="170" width="270" height="30" as="geometry" />
        </mxCell>
        <mxCell id="nZrk-tRBo-uAZ6p1Nu0j-5" value="&lt;font style=&quot;font-size: 10px;&quot;&gt;&lt;b&gt;Fully connected Neural networks&lt;/b&gt;&lt;/font&gt;" style="text;html=1;align=center;verticalAlign=middle;resizable=0;points=[];autosize=1;strokeColor=none;fillColor=none;" vertex="1" parent="1">
          <mxGeometry x="280" y="170" width="180" height="30" as="geometry" />
        </mxCell>
        <mxCell id="nZrk-tRBo-uAZ6p1Nu0j-6" value="" style="endArrow=classic;html=1;rounded=0;" edge="1" parent="1">
          <mxGeometry width="50" height="50" relative="1" as="geometry">
            <mxPoint x="-590" y="185" as="sourcePoint" />
            <mxPoint x="-510" y="185" as="targetPoint" />
          </mxGeometry>
        </mxCell>
        <mxCell id="nZrk-tRBo-uAZ6p1Nu0j-7" value="" style="endArrow=classic;html=1;rounded=0;" edge="1" parent="1">
          <mxGeometry width="50" height="50" relative="1" as="geometry">
            <mxPoint x="-317" y="185" as="sourcePoint" />
            <mxPoint x="-237" y="185" as="targetPoint" />
          </mxGeometry>
        </mxCell>
        <mxCell id="nZrk-tRBo-uAZ6p1Nu0j-8" value="" style="endArrow=classic;html=1;rounded=0;" edge="1" parent="1">
          <mxGeometry width="50" height="50" relative="1" as="geometry">
            <mxPoint x="-30" y="184.5" as="sourcePoint" />
            <mxPoint x="-10" y="185" as="targetPoint" />
          </mxGeometry>
        </mxCell>
        <mxCell id="X7fl3DsQwL_G39KUiOJN-1" value="&lt;div style=&quot;text-align: center;&quot;&gt;&lt;span style=&quot;background-color: initial; font-size: 10px;&quot;&gt;&lt;b&gt;&amp;nbsp; (Non-trainable parameters)&lt;/b&gt;&lt;/span&gt;&lt;/div&gt;" style="text;whiteSpace=wrap;html=1;" vertex="1" parent="1">
          <mxGeometry x="-477" y="715" width="160" height="40" as="geometry" />
        </mxCell>
        <mxCell id="dHAyl-acKVuBaYuFbEp9-1" value="&lt;b style=&quot;--tw-border-spacing-x: 0; --tw-border-spacing-y: 0; --tw-translate-x: 0; --tw-translate-y: 0; --tw-rotate: 0; --tw-skew-x: 0; --tw-skew-y: 0; --tw-scale-x: 1; --tw-scale-y: 1; --tw-pan-x: ; --tw-pan-y: ; --tw-pinch-zoom: ; --tw-scroll-snap-strictness: proximity; --tw-ordinal: ; --tw-slashed-zero: ; --tw-numeric-figure: ; --tw-numeric-spacing: ; --tw-numeric-fraction: ; --tw-ring-inset: ; --tw-ring-offset-width: 0px; --tw-ring-offset-color: #fff; --tw-ring-color: rgb(59 130 246 / 0.5); --tw-ring-offset-shadow: 0 0 #0000; --tw-ring-shadow: 0 0 #0000; --tw-shadow: 0 0 #0000; --tw-shadow-colored: 0 0 #0000; --tw-blur: ; --tw-brightness: ; --tw-contrast: ; --tw-grayscale: ; --tw-hue-rotate: ; --tw-invert: ; --tw-saturate: ; --tw-sepia: ; --tw-drop-shadow: ; --tw-backdrop-blur: ; --tw-backdrop-brightness: ; --tw-backdrop-contrast: ; --tw-backdrop-grayscale: ; --tw-backdrop-hue-rotate: ; --tw-backdrop-invert: ; --tw-backdrop-opacity: ; --tw-backdrop-saturate: ; --tw-backdrop-sepia: ; border-color: var(--border-color); font-size: 10px;&quot;&gt;&amp;nbsp; (Non-trainable parameters)&lt;/b&gt;" style="text;html=1;align=center;verticalAlign=middle;resizable=0;points=[];autosize=1;strokeColor=none;fillColor=none;" vertex="1" parent="1">
          <mxGeometry x="-495" y="185" width="160" height="30" as="geometry" />
        </mxCell>
        <mxCell id="lpeuPYtHNBFwYKJ5nvoa-4" value="" style="endArrow=classic;html=1;rounded=0;exitX=1.007;exitY=0.552;exitDx=0;exitDy=0;exitPerimeter=0;" edge="1" parent="1" source="nZrk-tRBo-uAZ6p1Nu0j-4" target="nZrk-tRBo-uAZ6p1Nu0j-5">
          <mxGeometry width="50" height="50" relative="1" as="geometry">
            <mxPoint y="214.5" as="sourcePoint" />
            <mxPoint x="20" y="215" as="targetPoint" />
          </mxGeometry>
        </mxCell>
        <mxCell id="yPo4Nh-SUNTeFT1Pr1ZX-1" value="" style="shape=crossbar;whiteSpace=wrap;html=1;rounded=1;direction=south;" vertex="1" parent="1">
          <mxGeometry x="15" y="445" width="20" height="155" as="geometry" />
        </mxCell>
        <mxCell id="yPo4Nh-SUNTeFT1Pr1ZX-2" value="&lt;font style=&quot;font-size: 12px;&quot;&gt;1024&lt;/font&gt;" style="text;html=1;align=center;verticalAlign=middle;resizable=0;points=[];autosize=1;strokeColor=none;fillColor=none;rotation=-90;" vertex="1" parent="1">
          <mxGeometry x="-10" y="502.5" width="50" height="30" as="geometry" />
        </mxCell>
      </root>
    </mxGraphModel>
  </diagram>
  <diagram id="Ke_WuOLCFPGFaNXSwGFq" name="Page-3">
    <mxGraphModel dx="2514" dy="927" grid="1" gridSize="10" guides="1" tooltips="1" connect="1" arrows="1" fold="1" page="1" pageScale="1" pageWidth="827" pageHeight="1169" math="0" shadow="0">
      <root>
        <mxCell id="0" />
        <mxCell id="1" parent="0" />
        <mxCell id="q9gMgA6r8mgp_VUoPaIa-1" value="[CLS] + Protein P + [SEP]" style="shape=step;perimeter=stepPerimeter;whiteSpace=wrap;html=1;fixedSize=1;fillColor=#fff2cc;strokeColor=#d6b656;" vertex="1" parent="1">
          <mxGeometry x="-800" y="345" width="259" height="50" as="geometry" />
        </mxCell>
        <mxCell id="q9gMgA6r8mgp_VUoPaIa-2" value="&lt;b&gt;Pretrained ProteinBertBFD&lt;br&gt;&lt;font style=&quot;font-size: 10px;&quot;&gt;(Parameters are freezed)&lt;/font&gt;&lt;/b&gt;" style="rounded=1;whiteSpace=wrap;html=1;fillColor=#dae8fc;strokeColor=#6c8ebf;" vertex="1" parent="1">
          <mxGeometry x="-530" y="225" width="246" height="290" as="geometry" />
        </mxCell>
        <mxCell id="q9gMgA6r8mgp_VUoPaIa-3" value="" style="endArrow=none;dashed=1;html=1;rounded=0;entryX=0.885;entryY=0;entryDx=0;entryDy=0;entryPerimeter=0;exitX=0.885;exitY=1;exitDx=0;exitDy=0;exitPerimeter=0;" edge="1" parent="1" source="q9gMgA6r8mgp_VUoPaIa-2" target="q9gMgA6r8mgp_VUoPaIa-2">
          <mxGeometry width="50" height="50" relative="1" as="geometry">
            <mxPoint x="-320" y="315" as="sourcePoint" />
            <mxPoint x="-270" y="265" as="targetPoint" />
          </mxGeometry>
        </mxCell>
        <mxCell id="q9gMgA6r8mgp_VUoPaIa-4" value="" style="endArrow=classic;html=1;rounded=0;" edge="1" parent="1">
          <mxGeometry width="50" height="50" relative="1" as="geometry">
            <mxPoint x="-270" y="255" as="sourcePoint" />
            <mxPoint x="-190" y="255" as="targetPoint" />
          </mxGeometry>
        </mxCell>
        <mxCell id="q9gMgA6r8mgp_VUoPaIa-5" value="" style="endArrow=classic;html=1;rounded=0;" edge="1" parent="1">
          <mxGeometry width="50" height="50" relative="1" as="geometry">
            <mxPoint x="-270" y="495" as="sourcePoint" />
            <mxPoint x="-190" y="495" as="targetPoint" />
          </mxGeometry>
        </mxCell>
        <mxCell id="q9gMgA6r8mgp_VUoPaIa-6" value="" style="endArrow=classic;html=1;rounded=0;" edge="1" parent="1">
          <mxGeometry width="50" height="50" relative="1" as="geometry">
            <mxPoint x="-270" y="295" as="sourcePoint" />
            <mxPoint x="-190" y="295" as="targetPoint" />
          </mxGeometry>
        </mxCell>
        <mxCell id="q9gMgA6r8mgp_VUoPaIa-7" value="" style="endArrow=classic;html=1;rounded=0;" edge="1" parent="1">
          <mxGeometry width="50" height="50" relative="1" as="geometry">
            <mxPoint x="-270" y="335" as="sourcePoint" />
            <mxPoint x="-190" y="335" as="targetPoint" />
          </mxGeometry>
        </mxCell>
        <mxCell id="q9gMgA6r8mgp_VUoPaIa-8" value="" style="endArrow=classic;html=1;rounded=0;" edge="1" parent="1">
          <mxGeometry width="50" height="50" relative="1" as="geometry">
            <mxPoint x="-270" y="455" as="sourcePoint" />
            <mxPoint x="-190" y="455" as="targetPoint" />
          </mxGeometry>
        </mxCell>
        <mxCell id="q9gMgA6r8mgp_VUoPaIa-9" value="&lt;font style=&quot;font-size: 7px;&quot;&gt;&lt;b&gt;[CLS] Token Embedding&lt;/b&gt;&lt;/font&gt;" style="rounded=0;whiteSpace=wrap;html=1;fillColor=#f8cecc;strokeColor=#b85450;gradientColor=#ea6b66;" vertex="1" parent="1">
          <mxGeometry x="-180" y="245" width="90" height="20" as="geometry" />
        </mxCell>
        <mxCell id="q9gMgA6r8mgp_VUoPaIa-10" value="&lt;font style=&quot;font-size: 7px;&quot;&gt;&lt;b&gt;Amino acid&#39;s Embedding&lt;/b&gt;&lt;/font&gt;" style="rounded=0;whiteSpace=wrap;html=1;fillColor=#f8cecc;gradientColor=#ea6b66;strokeColor=#b85450;" vertex="1" parent="1">
          <mxGeometry x="-180" y="285" width="90" height="20" as="geometry" />
        </mxCell>
        <mxCell id="q9gMgA6r8mgp_VUoPaIa-11" value="&lt;b style=&quot;--tw-border-spacing-x: 0; --tw-border-spacing-y: 0; --tw-translate-x: 0; --tw-translate-y: 0; --tw-rotate: 0; --tw-skew-x: 0; --tw-skew-y: 0; --tw-scale-x: 1; --tw-scale-y: 1; --tw-pan-x: ; --tw-pan-y: ; --tw-pinch-zoom: ; --tw-scroll-snap-strictness: proximity; --tw-ordinal: ; --tw-slashed-zero: ; --tw-numeric-figure: ; --tw-numeric-spacing: ; --tw-numeric-fraction: ; --tw-ring-inset: ; --tw-ring-offset-width: 0px; --tw-ring-offset-color: #fff; --tw-ring-color: rgb(59 130 246 / 0.5); --tw-ring-offset-shadow: 0 0 #0000; --tw-ring-shadow: 0 0 #0000; --tw-shadow: 0 0 #0000; --tw-shadow-colored: 0 0 #0000; --tw-blur: ; --tw-brightness: ; --tw-contrast: ; --tw-grayscale: ; --tw-hue-rotate: ; --tw-invert: ; --tw-saturate: ; --tw-sepia: ; --tw-drop-shadow: ; --tw-backdrop-blur: ; --tw-backdrop-brightness: ; --tw-backdrop-contrast: ; --tw-backdrop-grayscale: ; --tw-backdrop-hue-rotate: ; --tw-backdrop-invert: ; --tw-backdrop-opacity: ; --tw-backdrop-saturate: ; --tw-backdrop-sepia: ; border-color: var(--border-color); font-size: 7px;&quot;&gt;Amino acid&#39;s Embedding&lt;/b&gt;" style="rounded=0;whiteSpace=wrap;html=1;fillColor=#f8cecc;gradientColor=#ea6b66;strokeColor=#b85450;" vertex="1" parent="1">
          <mxGeometry x="-180" y="325" width="90" height="20" as="geometry" />
        </mxCell>
        <mxCell id="q9gMgA6r8mgp_VUoPaIa-12" value="&lt;b style=&quot;--tw-border-spacing-x: 0; --tw-border-spacing-y: 0; --tw-translate-x: 0; --tw-translate-y: 0; --tw-rotate: 0; --tw-skew-x: 0; --tw-skew-y: 0; --tw-scale-x: 1; --tw-scale-y: 1; --tw-pan-x: ; --tw-pan-y: ; --tw-pinch-zoom: ; --tw-scroll-snap-strictness: proximity; --tw-ordinal: ; --tw-slashed-zero: ; --tw-numeric-figure: ; --tw-numeric-spacing: ; --tw-numeric-fraction: ; --tw-ring-inset: ; --tw-ring-offset-width: 0px; --tw-ring-offset-color: #fff; --tw-ring-color: rgb(59 130 246 / 0.5); --tw-ring-offset-shadow: 0 0 #0000; --tw-ring-shadow: 0 0 #0000; --tw-shadow: 0 0 #0000; --tw-shadow-colored: 0 0 #0000; --tw-blur: ; --tw-brightness: ; --tw-contrast: ; --tw-grayscale: ; --tw-hue-rotate: ; --tw-invert: ; --tw-saturate: ; --tw-sepia: ; --tw-drop-shadow: ; --tw-backdrop-blur: ; --tw-backdrop-brightness: ; --tw-backdrop-contrast: ; --tw-backdrop-grayscale: ; --tw-backdrop-hue-rotate: ; --tw-backdrop-invert: ; --tw-backdrop-opacity: ; --tw-backdrop-saturate: ; --tw-backdrop-sepia: ; border-color: var(--border-color); font-size: 7px;&quot;&gt;Amino acid&#39;s Embedding&lt;/b&gt;" style="rounded=0;whiteSpace=wrap;html=1;fillColor=#f8cecc;gradientColor=#ea6b66;strokeColor=#b85450;" vertex="1" parent="1">
          <mxGeometry x="-180" y="445" width="90" height="20" as="geometry" />
        </mxCell>
        <mxCell id="q9gMgA6r8mgp_VUoPaIa-13" value="&lt;b style=&quot;--tw-border-spacing-x: 0; --tw-border-spacing-y: 0; --tw-translate-x: 0; --tw-translate-y: 0; --tw-rotate: 0; --tw-skew-x: 0; --tw-skew-y: 0; --tw-scale-x: 1; --tw-scale-y: 1; --tw-pan-x: ; --tw-pan-y: ; --tw-pinch-zoom: ; --tw-scroll-snap-strictness: proximity; --tw-ordinal: ; --tw-slashed-zero: ; --tw-numeric-figure: ; --tw-numeric-spacing: ; --tw-numeric-fraction: ; --tw-ring-inset: ; --tw-ring-offset-width: 0px; --tw-ring-offset-color: #fff; --tw-ring-color: rgb(59 130 246 / 0.5); --tw-ring-offset-shadow: 0 0 #0000; --tw-ring-shadow: 0 0 #0000; --tw-shadow: 0 0 #0000; --tw-shadow-colored: 0 0 #0000; --tw-blur: ; --tw-brightness: ; --tw-contrast: ; --tw-grayscale: ; --tw-hue-rotate: ; --tw-invert: ; --tw-saturate: ; --tw-sepia: ; --tw-drop-shadow: ; --tw-backdrop-blur: ; --tw-backdrop-brightness: ; --tw-backdrop-contrast: ; --tw-backdrop-grayscale: ; --tw-backdrop-hue-rotate: ; --tw-backdrop-invert: ; --tw-backdrop-opacity: ; --tw-backdrop-saturate: ; --tw-backdrop-sepia: ; border-color: var(--border-color); font-size: 7px;&quot;&gt;[SEP] Token Embedding&lt;/b&gt;" style="rounded=0;whiteSpace=wrap;html=1;fillColor=#f8cecc;gradientColor=#ea6b66;strokeColor=#b85450;" vertex="1" parent="1">
          <mxGeometry x="-180" y="485" width="90" height="20" as="geometry" />
        </mxCell>
        <mxCell id="q9gMgA6r8mgp_VUoPaIa-14" value="" style="shape=crossbar;whiteSpace=wrap;html=1;rounded=1;" vertex="1" parent="1">
          <mxGeometry x="-180" y="215" width="90" height="20" as="geometry" />
        </mxCell>
        <mxCell id="q9gMgA6r8mgp_VUoPaIa-15" value="&lt;font style=&quot;font-size: 9px;&quot;&gt;1024&lt;/font&gt;" style="text;html=1;align=center;verticalAlign=middle;resizable=0;points=[];autosize=1;strokeColor=none;fillColor=none;" vertex="1" parent="1">
          <mxGeometry x="-160" y="200" width="40" height="30" as="geometry" />
        </mxCell>
        <mxCell id="q9gMgA6r8mgp_VUoPaIa-16" value="" style="rounded=0;whiteSpace=wrap;html=1;fillColor=#000000;" vertex="1" parent="1">
          <mxGeometry x="-145" y="355" width="10" height="10" as="geometry" />
        </mxCell>
        <mxCell id="q9gMgA6r8mgp_VUoPaIa-17" value="" style="rounded=0;whiteSpace=wrap;html=1;fillColor=#000000;" vertex="1" parent="1">
          <mxGeometry x="-145" y="385" width="10" height="10" as="geometry" />
        </mxCell>
        <mxCell id="q9gMgA6r8mgp_VUoPaIa-18" value="" style="rounded=0;whiteSpace=wrap;html=1;fillColor=#000000;" vertex="1" parent="1">
          <mxGeometry x="-145" y="415" width="10" height="10" as="geometry" />
        </mxCell>
        <mxCell id="q9gMgA6r8mgp_VUoPaIa-20" value="" style="rounded=0;whiteSpace=wrap;html=1;fillColor=#f8cecc;strokeColor=#b85450;gradientColor=#ea6b66;" vertex="1" parent="1">
          <mxGeometry x="100" y="290" width="20" height="155" as="geometry" />
        </mxCell>
        <mxCell id="q9gMgA6r8mgp_VUoPaIa-21" value="&lt;font style=&quot;font-size: 10px;&quot;&gt;&lt;b&gt;Convolutional Layers and Fully Connected Linear Layers with ReLU activation functions&lt;br&gt;(Trainable Parameters)&lt;br&gt;&lt;br&gt;&lt;/b&gt;&lt;/font&gt;" style="rounded=0;whiteSpace=wrap;html=1;dashed=1;fillColor=#d5e8d4;strokeColor=#82b366;" vertex="1" parent="1">
          <mxGeometry x="240" y="305" width="130" height="120" as="geometry" />
        </mxCell>
        <mxCell id="q9gMgA6r8mgp_VUoPaIa-22" value="" style="endArrow=classic;html=1;rounded=0;" edge="1" parent="1">
          <mxGeometry width="50" height="50" relative="1" as="geometry">
            <mxPoint x="860" y="435" as="sourcePoint" />
            <mxPoint x="890" y="435" as="targetPoint" />
          </mxGeometry>
        </mxCell>
        <mxCell id="q9gMgA6r8mgp_VUoPaIa-23" value="" style="rounded=0;whiteSpace=wrap;html=1;" vertex="1" parent="1">
          <mxGeometry x="900" y="425" width="30" height="25" as="geometry" />
        </mxCell>
        <mxCell id="q9gMgA6r8mgp_VUoPaIa-24" value="&lt;font style=&quot;font-size: 7px;&quot;&gt;Prediction value&lt;/font&gt;" style="text;html=1;align=center;verticalAlign=middle;resizable=0;points=[];autosize=1;strokeColor=none;fillColor=none;" vertex="1" parent="1">
          <mxGeometry x="880" y="445" width="70" height="30" as="geometry" />
        </mxCell>
        <mxCell id="q9gMgA6r8mgp_VUoPaIa-25" value="[CLS] + Protein P&#39; + [SEP]" style="shape=step;perimeter=stepPerimeter;whiteSpace=wrap;html=1;fixedSize=1;fillColor=#fff2cc;strokeColor=#d6b656;" vertex="1" parent="1">
          <mxGeometry x="-800" y="765" width="259" height="50" as="geometry" />
        </mxCell>
        <mxCell id="q9gMgA6r8mgp_VUoPaIa-26" value="&lt;b&gt;Pretrained ProteinBertBFD&lt;br&gt;&lt;font style=&quot;font-size: 10px;&quot;&gt;(Parameters are freezed)&lt;/font&gt;&lt;/b&gt;" style="rounded=1;whiteSpace=wrap;html=1;fillColor=#dae8fc;strokeColor=#6c8ebf;" vertex="1" parent="1">
          <mxGeometry x="-530" y="645" width="246" height="290" as="geometry" />
        </mxCell>
        <mxCell id="q9gMgA6r8mgp_VUoPaIa-27" value="" style="endArrow=none;dashed=1;html=1;rounded=0;entryX=0.885;entryY=0;entryDx=0;entryDy=0;entryPerimeter=0;exitX=0.885;exitY=1;exitDx=0;exitDy=0;exitPerimeter=0;" edge="1" parent="1" source="q9gMgA6r8mgp_VUoPaIa-26" target="q9gMgA6r8mgp_VUoPaIa-26">
          <mxGeometry width="50" height="50" relative="1" as="geometry">
            <mxPoint x="-320" y="735" as="sourcePoint" />
            <mxPoint x="-270" y="685" as="targetPoint" />
          </mxGeometry>
        </mxCell>
        <mxCell id="q9gMgA6r8mgp_VUoPaIa-28" value="" style="endArrow=classic;html=1;rounded=0;" edge="1" parent="1">
          <mxGeometry width="50" height="50" relative="1" as="geometry">
            <mxPoint x="-270" y="675" as="sourcePoint" />
            <mxPoint x="-190" y="675" as="targetPoint" />
          </mxGeometry>
        </mxCell>
        <mxCell id="q9gMgA6r8mgp_VUoPaIa-29" value="" style="endArrow=classic;html=1;rounded=0;" edge="1" parent="1">
          <mxGeometry width="50" height="50" relative="1" as="geometry">
            <mxPoint x="-270" y="915" as="sourcePoint" />
            <mxPoint x="-190" y="915" as="targetPoint" />
          </mxGeometry>
        </mxCell>
        <mxCell id="q9gMgA6r8mgp_VUoPaIa-30" value="" style="endArrow=classic;html=1;rounded=0;" edge="1" parent="1">
          <mxGeometry width="50" height="50" relative="1" as="geometry">
            <mxPoint x="-270" y="715" as="sourcePoint" />
            <mxPoint x="-190" y="715" as="targetPoint" />
          </mxGeometry>
        </mxCell>
        <mxCell id="q9gMgA6r8mgp_VUoPaIa-31" value="" style="endArrow=classic;html=1;rounded=0;" edge="1" parent="1">
          <mxGeometry width="50" height="50" relative="1" as="geometry">
            <mxPoint x="-270" y="755" as="sourcePoint" />
            <mxPoint x="-190" y="755" as="targetPoint" />
          </mxGeometry>
        </mxCell>
        <mxCell id="q9gMgA6r8mgp_VUoPaIa-32" value="" style="endArrow=classic;html=1;rounded=0;" edge="1" parent="1">
          <mxGeometry width="50" height="50" relative="1" as="geometry">
            <mxPoint x="-270" y="875" as="sourcePoint" />
            <mxPoint x="-190" y="875" as="targetPoint" />
          </mxGeometry>
        </mxCell>
        <mxCell id="q9gMgA6r8mgp_VUoPaIa-33" value="&lt;font style=&quot;font-size: 7px;&quot;&gt;&lt;b&gt;[CLS] Token Embedding&lt;/b&gt;&lt;/font&gt;" style="rounded=0;whiteSpace=wrap;html=1;fillColor=#fff2cc;strokeColor=#d6b656;gradientColor=#ffd966;" vertex="1" parent="1">
          <mxGeometry x="-180" y="665" width="90" height="20" as="geometry" />
        </mxCell>
        <mxCell id="q9gMgA6r8mgp_VUoPaIa-34" value="&lt;font style=&quot;font-size: 7px;&quot;&gt;&lt;b&gt;Amino acid&#39;s Embedding&lt;/b&gt;&lt;/font&gt;" style="rounded=0;whiteSpace=wrap;html=1;fillColor=#fff2cc;gradientColor=#ffd966;strokeColor=#d6b656;" vertex="1" parent="1">
          <mxGeometry x="-180" y="705" width="90" height="20" as="geometry" />
        </mxCell>
        <mxCell id="q9gMgA6r8mgp_VUoPaIa-35" value="&lt;b style=&quot;--tw-border-spacing-x: 0; --tw-border-spacing-y: 0; --tw-translate-x: 0; --tw-translate-y: 0; --tw-rotate: 0; --tw-skew-x: 0; --tw-skew-y: 0; --tw-scale-x: 1; --tw-scale-y: 1; --tw-pan-x: ; --tw-pan-y: ; --tw-pinch-zoom: ; --tw-scroll-snap-strictness: proximity; --tw-ordinal: ; --tw-slashed-zero: ; --tw-numeric-figure: ; --tw-numeric-spacing: ; --tw-numeric-fraction: ; --tw-ring-inset: ; --tw-ring-offset-width: 0px; --tw-ring-offset-color: #fff; --tw-ring-color: rgb(59 130 246 / 0.5); --tw-ring-offset-shadow: 0 0 #0000; --tw-ring-shadow: 0 0 #0000; --tw-shadow: 0 0 #0000; --tw-shadow-colored: 0 0 #0000; --tw-blur: ; --tw-brightness: ; --tw-contrast: ; --tw-grayscale: ; --tw-hue-rotate: ; --tw-invert: ; --tw-saturate: ; --tw-sepia: ; --tw-drop-shadow: ; --tw-backdrop-blur: ; --tw-backdrop-brightness: ; --tw-backdrop-contrast: ; --tw-backdrop-grayscale: ; --tw-backdrop-hue-rotate: ; --tw-backdrop-invert: ; --tw-backdrop-opacity: ; --tw-backdrop-saturate: ; --tw-backdrop-sepia: ; border-color: var(--border-color); font-size: 7px;&quot;&gt;Amino acid&#39;s Embedding&lt;/b&gt;" style="rounded=0;whiteSpace=wrap;html=1;fillColor=#fff2cc;gradientColor=#ffd966;strokeColor=#d6b656;" vertex="1" parent="1">
          <mxGeometry x="-180" y="745" width="90" height="20" as="geometry" />
        </mxCell>
        <mxCell id="q9gMgA6r8mgp_VUoPaIa-36" value="&lt;b style=&quot;--tw-border-spacing-x: 0; --tw-border-spacing-y: 0; --tw-translate-x: 0; --tw-translate-y: 0; --tw-rotate: 0; --tw-skew-x: 0; --tw-skew-y: 0; --tw-scale-x: 1; --tw-scale-y: 1; --tw-pan-x: ; --tw-pan-y: ; --tw-pinch-zoom: ; --tw-scroll-snap-strictness: proximity; --tw-ordinal: ; --tw-slashed-zero: ; --tw-numeric-figure: ; --tw-numeric-spacing: ; --tw-numeric-fraction: ; --tw-ring-inset: ; --tw-ring-offset-width: 0px; --tw-ring-offset-color: #fff; --tw-ring-color: rgb(59 130 246 / 0.5); --tw-ring-offset-shadow: 0 0 #0000; --tw-ring-shadow: 0 0 #0000; --tw-shadow: 0 0 #0000; --tw-shadow-colored: 0 0 #0000; --tw-blur: ; --tw-brightness: ; --tw-contrast: ; --tw-grayscale: ; --tw-hue-rotate: ; --tw-invert: ; --tw-saturate: ; --tw-sepia: ; --tw-drop-shadow: ; --tw-backdrop-blur: ; --tw-backdrop-brightness: ; --tw-backdrop-contrast: ; --tw-backdrop-grayscale: ; --tw-backdrop-hue-rotate: ; --tw-backdrop-invert: ; --tw-backdrop-opacity: ; --tw-backdrop-saturate: ; --tw-backdrop-sepia: ; border-color: var(--border-color); font-size: 7px;&quot;&gt;Amino acid&#39;s Embedding&lt;/b&gt;" style="rounded=0;whiteSpace=wrap;html=1;fillColor=#fff2cc;gradientColor=#ffd966;strokeColor=#d6b656;" vertex="1" parent="1">
          <mxGeometry x="-180" y="865" width="90" height="20" as="geometry" />
        </mxCell>
        <mxCell id="q9gMgA6r8mgp_VUoPaIa-37" value="&lt;b style=&quot;--tw-border-spacing-x: 0; --tw-border-spacing-y: 0; --tw-translate-x: 0; --tw-translate-y: 0; --tw-rotate: 0; --tw-skew-x: 0; --tw-skew-y: 0; --tw-scale-x: 1; --tw-scale-y: 1; --tw-pan-x: ; --tw-pan-y: ; --tw-pinch-zoom: ; --tw-scroll-snap-strictness: proximity; --tw-ordinal: ; --tw-slashed-zero: ; --tw-numeric-figure: ; --tw-numeric-spacing: ; --tw-numeric-fraction: ; --tw-ring-inset: ; --tw-ring-offset-width: 0px; --tw-ring-offset-color: #fff; --tw-ring-color: rgb(59 130 246 / 0.5); --tw-ring-offset-shadow: 0 0 #0000; --tw-ring-shadow: 0 0 #0000; --tw-shadow: 0 0 #0000; --tw-shadow-colored: 0 0 #0000; --tw-blur: ; --tw-brightness: ; --tw-contrast: ; --tw-grayscale: ; --tw-hue-rotate: ; --tw-invert: ; --tw-saturate: ; --tw-sepia: ; --tw-drop-shadow: ; --tw-backdrop-blur: ; --tw-backdrop-brightness: ; --tw-backdrop-contrast: ; --tw-backdrop-grayscale: ; --tw-backdrop-hue-rotate: ; --tw-backdrop-invert: ; --tw-backdrop-opacity: ; --tw-backdrop-saturate: ; --tw-backdrop-sepia: ; border-color: var(--border-color); font-size: 7px;&quot;&gt;[SEP] Token Embedding&lt;/b&gt;" style="rounded=0;whiteSpace=wrap;html=1;fillColor=#fff2cc;gradientColor=#ffd966;strokeColor=#d6b656;" vertex="1" parent="1">
          <mxGeometry x="-180" y="905" width="90" height="20" as="geometry" />
        </mxCell>
        <mxCell id="q9gMgA6r8mgp_VUoPaIa-38" value="" style="shape=crossbar;whiteSpace=wrap;html=1;rounded=1;" vertex="1" parent="1">
          <mxGeometry x="-180" y="635" width="90" height="20" as="geometry" />
        </mxCell>
        <mxCell id="q9gMgA6r8mgp_VUoPaIa-39" value="&lt;font style=&quot;font-size: 9px;&quot;&gt;1024&lt;/font&gt;" style="text;html=1;align=center;verticalAlign=middle;resizable=0;points=[];autosize=1;strokeColor=none;fillColor=none;" vertex="1" parent="1">
          <mxGeometry x="-160" y="620" width="40" height="30" as="geometry" />
        </mxCell>
        <mxCell id="q9gMgA6r8mgp_VUoPaIa-40" value="" style="rounded=0;whiteSpace=wrap;html=1;fillColor=#000000;" vertex="1" parent="1">
          <mxGeometry x="-145" y="775" width="10" height="10" as="geometry" />
        </mxCell>
        <mxCell id="q9gMgA6r8mgp_VUoPaIa-41" value="" style="rounded=0;whiteSpace=wrap;html=1;fillColor=#000000;" vertex="1" parent="1">
          <mxGeometry x="-145" y="805" width="10" height="10" as="geometry" />
        </mxCell>
        <mxCell id="q9gMgA6r8mgp_VUoPaIa-42" value="" style="rounded=0;whiteSpace=wrap;html=1;fillColor=#000000;" vertex="1" parent="1">
          <mxGeometry x="-145" y="835" width="10" height="10" as="geometry" />
        </mxCell>
        <mxCell id="q9gMgA6r8mgp_VUoPaIa-44" value="" style="rounded=0;whiteSpace=wrap;html=1;fillColor=#fff2cc;strokeColor=#d6b656;fillStyle=solid;" vertex="1" parent="1">
          <mxGeometry x="100" y="713.75" width="20" height="152.5" as="geometry" />
        </mxCell>
        <mxCell id="q9gMgA6r8mgp_VUoPaIa-46" value="" style="endArrow=classic;html=1;rounded=0;" edge="1" parent="1">
          <mxGeometry width="50" height="50" relative="1" as="geometry">
            <mxPoint x="170" y="364" as="sourcePoint" />
            <mxPoint x="230" y="364.5" as="targetPoint" />
          </mxGeometry>
        </mxCell>
        <mxCell id="q9gMgA6r8mgp_VUoPaIa-47" value="&lt;font style=&quot;font-size: 10px;&quot;&gt;&lt;b&gt;&amp;nbsp;Proteins Input of Length L&lt;/b&gt;&lt;/font&gt;" style="text;html=1;align=center;verticalAlign=middle;resizable=0;points=[];autosize=1;strokeColor=none;fillColor=none;" vertex="1" parent="1">
          <mxGeometry x="-755" y="170" width="150" height="30" as="geometry" />
        </mxCell>
        <mxCell id="q9gMgA6r8mgp_VUoPaIa-48" value="&lt;font style=&quot;font-size: 10px;&quot;&gt;&lt;b&gt;Pretrained ProteinBertBFD&lt;/b&gt;&lt;/font&gt;" style="text;html=1;align=center;verticalAlign=middle;resizable=0;points=[];autosize=1;strokeColor=none;fillColor=none;" vertex="1" parent="1">
          <mxGeometry x="-490" y="170" width="150" height="30" as="geometry" />
        </mxCell>
        <mxCell id="q9gMgA6r8mgp_VUoPaIa-50" value="&lt;b&gt;&lt;font style=&quot;font-size: 10px;&quot;&gt;Embedding vectors from ProtBert&lt;/font&gt;&lt;/b&gt;" style="text;html=1;align=center;verticalAlign=middle;resizable=0;points=[];autosize=1;strokeColor=none;fillColor=none;" vertex="1" parent="1">
          <mxGeometry x="-225" y="170" width="180" height="30" as="geometry" />
        </mxCell>
        <mxCell id="q9gMgA6r8mgp_VUoPaIa-51" value="&lt;font style=&quot;font-size: 10px;&quot;&gt;&lt;b&gt;Global Average Pooling&lt;/b&gt;&lt;/font&gt;" style="text;html=1;align=center;verticalAlign=middle;resizable=0;points=[];autosize=1;strokeColor=none;fillColor=none;" vertex="1" parent="1">
          <mxGeometry x="-10" y="170" width="140" height="30" as="geometry" />
        </mxCell>
        <mxCell id="q9gMgA6r8mgp_VUoPaIa-52" value="&lt;font style=&quot;font-size: 10px;&quot;&gt;&lt;b&gt;Fully connected Neural networks&lt;/b&gt;&lt;/font&gt;" style="text;html=1;align=center;verticalAlign=middle;resizable=0;points=[];autosize=1;strokeColor=none;fillColor=none;" vertex="1" parent="1">
          <mxGeometry x="200" y="170" width="180" height="30" as="geometry" />
        </mxCell>
        <mxCell id="q9gMgA6r8mgp_VUoPaIa-53" value="" style="endArrow=classic;html=1;rounded=0;" edge="1" parent="1">
          <mxGeometry width="50" height="50" relative="1" as="geometry">
            <mxPoint x="-590" y="185" as="sourcePoint" />
            <mxPoint x="-510" y="185" as="targetPoint" />
          </mxGeometry>
        </mxCell>
        <mxCell id="q9gMgA6r8mgp_VUoPaIa-54" value="" style="endArrow=classic;html=1;rounded=0;" edge="1" parent="1">
          <mxGeometry width="50" height="50" relative="1" as="geometry">
            <mxPoint x="-317" y="185" as="sourcePoint" />
            <mxPoint x="-237" y="185" as="targetPoint" />
          </mxGeometry>
        </mxCell>
        <mxCell id="q9gMgA6r8mgp_VUoPaIa-55" value="" style="endArrow=classic;html=1;rounded=0;" edge="1" parent="1">
          <mxGeometry width="50" height="50" relative="1" as="geometry">
            <mxPoint x="-30" y="184.5" as="sourcePoint" />
            <mxPoint x="-10" y="185" as="targetPoint" />
          </mxGeometry>
        </mxCell>
        <mxCell id="q9gMgA6r8mgp_VUoPaIa-56" value="&lt;div style=&quot;text-align: center;&quot;&gt;&lt;span style=&quot;background-color: initial; font-size: 10px;&quot;&gt;&lt;b&gt;&amp;nbsp; (Non-trainable parameters)&lt;/b&gt;&lt;/span&gt;&lt;/div&gt;" style="text;whiteSpace=wrap;html=1;" vertex="1" parent="1">
          <mxGeometry x="-477" y="715" width="160" height="40" as="geometry" />
        </mxCell>
        <mxCell id="q9gMgA6r8mgp_VUoPaIa-57" value="&lt;b style=&quot;--tw-border-spacing-x: 0; --tw-border-spacing-y: 0; --tw-translate-x: 0; --tw-translate-y: 0; --tw-rotate: 0; --tw-skew-x: 0; --tw-skew-y: 0; --tw-scale-x: 1; --tw-scale-y: 1; --tw-pan-x: ; --tw-pan-y: ; --tw-pinch-zoom: ; --tw-scroll-snap-strictness: proximity; --tw-ordinal: ; --tw-slashed-zero: ; --tw-numeric-figure: ; --tw-numeric-spacing: ; --tw-numeric-fraction: ; --tw-ring-inset: ; --tw-ring-offset-width: 0px; --tw-ring-offset-color: #fff; --tw-ring-color: rgb(59 130 246 / 0.5); --tw-ring-offset-shadow: 0 0 #0000; --tw-ring-shadow: 0 0 #0000; --tw-shadow: 0 0 #0000; --tw-shadow-colored: 0 0 #0000; --tw-blur: ; --tw-brightness: ; --tw-contrast: ; --tw-grayscale: ; --tw-hue-rotate: ; --tw-invert: ; --tw-saturate: ; --tw-sepia: ; --tw-drop-shadow: ; --tw-backdrop-blur: ; --tw-backdrop-brightness: ; --tw-backdrop-contrast: ; --tw-backdrop-grayscale: ; --tw-backdrop-hue-rotate: ; --tw-backdrop-invert: ; --tw-backdrop-opacity: ; --tw-backdrop-saturate: ; --tw-backdrop-sepia: ; border-color: var(--border-color); font-size: 10px;&quot;&gt;&amp;nbsp; (Non-trainable parameters)&lt;/b&gt;" style="text;html=1;align=center;verticalAlign=middle;resizable=0;points=[];autosize=1;strokeColor=none;fillColor=none;" vertex="1" parent="1">
          <mxGeometry x="-495" y="185" width="160" height="30" as="geometry" />
        </mxCell>
        <mxCell id="q9gMgA6r8mgp_VUoPaIa-58" value="" style="endArrow=classic;html=1;rounded=0;exitX=1.007;exitY=0.552;exitDx=0;exitDy=0;exitPerimeter=0;" edge="1" parent="1" source="q9gMgA6r8mgp_VUoPaIa-51">
          <mxGeometry width="50" height="50" relative="1" as="geometry">
            <mxPoint y="214.5" as="sourcePoint" />
            <mxPoint x="200" y="187" as="targetPoint" />
          </mxGeometry>
        </mxCell>
        <mxCell id="q9gMgA6r8mgp_VUoPaIa-63" value="" style="endArrow=classic;html=1;rounded=0;" edge="1" parent="1">
          <mxGeometry width="50" height="50" relative="1" as="geometry">
            <mxPoint x="-80" y="254.66" as="sourcePoint" />
            <mxPoint y="254.66" as="targetPoint" />
          </mxGeometry>
        </mxCell>
        <mxCell id="q9gMgA6r8mgp_VUoPaIa-64" value="" style="endArrow=classic;html=1;rounded=0;" edge="1" parent="1">
          <mxGeometry width="50" height="50" relative="1" as="geometry">
            <mxPoint x="-80" y="494.65999999999997" as="sourcePoint" />
            <mxPoint y="494.65999999999997" as="targetPoint" />
          </mxGeometry>
        </mxCell>
        <mxCell id="q9gMgA6r8mgp_VUoPaIa-65" value="" style="endArrow=classic;html=1;rounded=0;" edge="1" parent="1">
          <mxGeometry width="50" height="50" relative="1" as="geometry">
            <mxPoint x="-80" y="294.66" as="sourcePoint" />
            <mxPoint y="294.66" as="targetPoint" />
          </mxGeometry>
        </mxCell>
        <mxCell id="q9gMgA6r8mgp_VUoPaIa-67" value="" style="endArrow=classic;html=1;rounded=0;" edge="1" parent="1">
          <mxGeometry width="50" height="50" relative="1" as="geometry">
            <mxPoint x="-80" y="334.66" as="sourcePoint" />
            <mxPoint y="334.66" as="targetPoint" />
          </mxGeometry>
        </mxCell>
        <mxCell id="q9gMgA6r8mgp_VUoPaIa-68" value="" style="endArrow=classic;html=1;rounded=0;" edge="1" parent="1">
          <mxGeometry width="50" height="50" relative="1" as="geometry">
            <mxPoint x="-80" y="454.65999999999997" as="sourcePoint" />
            <mxPoint y="454.65999999999997" as="targetPoint" />
          </mxGeometry>
        </mxCell>
        <mxCell id="q9gMgA6r8mgp_VUoPaIa-69" value="" style="endArrow=classic;html=1;rounded=0;" edge="1" parent="1">
          <mxGeometry width="50" height="50" relative="1" as="geometry">
            <mxPoint x="-80" y="670" as="sourcePoint" />
            <mxPoint y="670" as="targetPoint" />
            <Array as="points">
              <mxPoint x="-50" y="670" />
            </Array>
          </mxGeometry>
        </mxCell>
        <mxCell id="q9gMgA6r8mgp_VUoPaIa-70" value="" style="endArrow=classic;html=1;rounded=0;" edge="1" parent="1">
          <mxGeometry width="50" height="50" relative="1" as="geometry">
            <mxPoint x="-80" y="910" as="sourcePoint" />
            <mxPoint y="910" as="targetPoint" />
          </mxGeometry>
        </mxCell>
        <mxCell id="q9gMgA6r8mgp_VUoPaIa-71" value="" style="endArrow=classic;html=1;rounded=0;" edge="1" parent="1">
          <mxGeometry width="50" height="50" relative="1" as="geometry">
            <mxPoint x="-80" y="710" as="sourcePoint" />
            <mxPoint y="710" as="targetPoint" />
          </mxGeometry>
        </mxCell>
        <mxCell id="q9gMgA6r8mgp_VUoPaIa-72" value="" style="endArrow=classic;html=1;rounded=0;" edge="1" parent="1">
          <mxGeometry width="50" height="50" relative="1" as="geometry">
            <mxPoint x="-80" y="750" as="sourcePoint" />
            <mxPoint y="750" as="targetPoint" />
          </mxGeometry>
        </mxCell>
        <mxCell id="q9gMgA6r8mgp_VUoPaIa-73" value="" style="endArrow=classic;html=1;rounded=0;" edge="1" parent="1">
          <mxGeometry width="50" height="50" relative="1" as="geometry">
            <mxPoint x="-80" y="870" as="sourcePoint" />
            <mxPoint y="870" as="targetPoint" />
          </mxGeometry>
        </mxCell>
        <mxCell id="q9gMgA6r8mgp_VUoPaIa-74" value="" style="shape=ext;double=1;rounded=1;whiteSpace=wrap;html=1;labelBackgroundColor=none;verticalAlign=middle;labelPosition=center;verticalLabelPosition=middle;align=center;direction=east;flipH=1;flipV=0;container=1;movable=1;resizable=1;rotatable=1;deletable=1;editable=1;locked=0;connectable=1;fillStyle=dashed;fillColor=#dae8fc;strokeColor=#6c8ebf;" vertex="1" parent="1">
          <mxGeometry x="7.5" y="247.5" width="32.5" height="262.5" as="geometry" />
        </mxCell>
        <mxCell id="q9gMgA6r8mgp_VUoPaIa-78" value="Global Average Pooling" style="text;html=1;align=center;verticalAlign=middle;resizable=0;points=[];autosize=1;strokeColor=none;fillColor=none;rotation=-90;fontStyle=1;fontSize=10;" vertex="1" parent="q9gMgA6r8mgp_VUoPaIa-74">
          <mxGeometry x="-52.504912090111205" y="127.5" width="140" height="30" as="geometry" />
        </mxCell>
        <mxCell id="q9gMgA6r8mgp_VUoPaIa-79" value="" style="shape=ext;double=1;rounded=1;whiteSpace=wrap;html=1;labelBackgroundColor=none;verticalAlign=middle;labelPosition=center;verticalLabelPosition=middle;align=center;direction=east;flipH=1;flipV=0;container=1;movable=1;resizable=1;rotatable=1;deletable=1;editable=1;locked=0;connectable=1;fillStyle=dashed;fillColor=#dae8fc;strokeColor=#6c8ebf;" vertex="1" parent="1">
          <mxGeometry x="2.5" y="655" width="32.5" height="262.5" as="geometry" />
        </mxCell>
        <mxCell id="q9gMgA6r8mgp_VUoPaIa-80" value="Global Average Pooling" style="text;html=1;align=center;verticalAlign=middle;resizable=0;points=[];autosize=1;strokeColor=none;fillColor=none;rotation=-90;fontStyle=1;fontSize=10;" vertex="1" parent="q9gMgA6r8mgp_VUoPaIa-79">
          <mxGeometry x="-53.754912090111205" y="120" width="140" height="30" as="geometry" />
        </mxCell>
        <mxCell id="q9gMgA6r8mgp_VUoPaIa-81" value="" style="edgeStyle=orthogonalEdgeStyle;rounded=0;orthogonalLoop=1;jettySize=auto;html=1;" edge="1" parent="1">
          <mxGeometry relative="1" as="geometry">
            <mxPoint x="50" y="367.3" as="sourcePoint" />
            <mxPoint x="85" y="367.3" as="targetPoint" />
          </mxGeometry>
        </mxCell>
        <mxCell id="q9gMgA6r8mgp_VUoPaIa-82" value="" style="edgeStyle=orthogonalEdgeStyle;rounded=0;orthogonalLoop=1;jettySize=auto;html=1;" edge="1" parent="1">
          <mxGeometry relative="1" as="geometry">
            <mxPoint x="50" y="789.86" as="sourcePoint" />
            <mxPoint x="85" y="789.86" as="targetPoint" />
          </mxGeometry>
        </mxCell>
        <mxCell id="q9gMgA6r8mgp_VUoPaIa-86" value="" style="shape=crossbar;whiteSpace=wrap;html=1;rounded=1;direction=south;" vertex="1" parent="1">
          <mxGeometry x="130" y="715" width="20" height="155" as="geometry" />
        </mxCell>
        <mxCell id="q9gMgA6r8mgp_VUoPaIa-87" value="" style="shape=crossbar;whiteSpace=wrap;html=1;rounded=1;direction=south;" vertex="1" parent="1">
          <mxGeometry x="130" y="290" width="20" height="155" as="geometry" />
        </mxCell>
        <mxCell id="q9gMgA6r8mgp_VUoPaIa-88" value="&lt;font style=&quot;font-size: 10px;&quot;&gt;&lt;b&gt;Convolutional Layers and Fully Connected Linear Layers with ReLU activation functions&lt;br&gt;(Trainable Parameters)&lt;br&gt;&lt;br&gt;&lt;/b&gt;&lt;/font&gt;" style="rounded=0;whiteSpace=wrap;html=1;dashed=1;fillColor=#d5e8d4;strokeColor=#82b366;" vertex="1" parent="1">
          <mxGeometry x="240" y="725" width="130" height="121.25" as="geometry" />
        </mxCell>
        <mxCell id="q9gMgA6r8mgp_VUoPaIa-89" value="" style="endArrow=classic;html=1;rounded=0;" edge="1" parent="1">
          <mxGeometry width="50" height="50" relative="1" as="geometry">
            <mxPoint x="170" y="789" as="sourcePoint" />
            <mxPoint x="230" y="789.5" as="targetPoint" />
          </mxGeometry>
        </mxCell>
        <mxCell id="q9gMgA6r8mgp_VUoPaIa-90" value="" style="rounded=0;whiteSpace=wrap;html=1;fillColor=#f8cecc;strokeColor=#b85450;gradientColor=#ea6b66;" vertex="1" parent="1">
          <mxGeometry x="510" y="390" width="20" height="180" as="geometry" />
        </mxCell>
        <mxCell id="q9gMgA6r8mgp_VUoPaIa-91" value="" style="rounded=0;whiteSpace=wrap;html=1;fillColor=#fff2cc;strokeColor=#d6b656;fillStyle=solid;" vertex="1" parent="1">
          <mxGeometry x="510" y="568.75" width="20" height="181.25" as="geometry" />
        </mxCell>
        <mxCell id="q9gMgA6r8mgp_VUoPaIa-92" value="" style="edgeStyle=segmentEdgeStyle;endArrow=classic;html=1;curved=0;rounded=0;endSize=8;startSize=8;" edge="1" parent="1">
          <mxGeometry width="50" height="50" relative="1" as="geometry">
            <mxPoint x="380" y="790" as="sourcePoint" />
            <mxPoint x="520" y="760" as="targetPoint" />
          </mxGeometry>
        </mxCell>
        <mxCell id="q9gMgA6r8mgp_VUoPaIa-93" value="" style="edgeStyle=segmentEdgeStyle;endArrow=classic;html=1;curved=0;rounded=0;endSize=8;startSize=8;" edge="1" parent="1">
          <mxGeometry width="50" height="50" relative="1" as="geometry">
            <mxPoint x="380" y="360" as="sourcePoint" />
            <mxPoint x="520" y="380" as="targetPoint" />
          </mxGeometry>
        </mxCell>
        <mxCell id="q9gMgA6r8mgp_VUoPaIa-94" value="&lt;font style=&quot;font-size: 10px;&quot;&gt;&lt;b&gt;Convolutional Layers and Fully Connected Linear Layers with ReLU activation functions&lt;br&gt;(Trainable Parameters)&lt;br&gt;&lt;br&gt;&lt;/b&gt;&lt;/font&gt;" style="rounded=0;whiteSpace=wrap;html=1;dashed=1;fillColor=#d5e8d4;strokeColor=#82b366;" vertex="1" parent="1">
          <mxGeometry x="630" y="420" width="220" height="225" as="geometry" />
        </mxCell>
        <mxCell id="q9gMgA6r8mgp_VUoPaIa-96" value="" style="endArrow=classic;html=1;rounded=0;" edge="1" parent="1">
          <mxGeometry width="50" height="50" relative="1" as="geometry">
            <mxPoint x="540" y="520" as="sourcePoint" />
            <mxPoint x="620" y="520" as="targetPoint" />
          </mxGeometry>
        </mxCell>
        <mxCell id="q9gMgA6r8mgp_VUoPaIa-98" value="" style="shape=crossbar;whiteSpace=wrap;html=1;rounded=1;rotation=90;" vertex="1" parent="1">
          <mxGeometry x="310" y="560" width="360" height="20" as="geometry" />
        </mxCell>
        <mxCell id="q9gMgA6r8mgp_VUoPaIa-99" value="&lt;font style=&quot;font-size: 13px;&quot;&gt;4096&lt;/font&gt;" style="text;html=1;align=center;verticalAlign=middle;resizable=0;points=[];autosize=1;strokeColor=none;fillColor=none;rotation=-90;" vertex="1" parent="1">
          <mxGeometry x="435" y="530" width="50" height="30" as="geometry" />
        </mxCell>
        <mxCell id="q9gMgA6r8mgp_VUoPaIa-101" value="&lt;font style=&quot;font-size: 12px;&quot;&gt;1024&lt;/font&gt;" style="text;html=1;align=center;verticalAlign=middle;resizable=0;points=[];autosize=1;strokeColor=none;fillColor=none;rotation=-90;" vertex="1" parent="1">
          <mxGeometry x="125" y="350" width="50" height="30" as="geometry" />
        </mxCell>
        <mxCell id="q9gMgA6r8mgp_VUoPaIa-102" value="&lt;font style=&quot;font-size: 12px;&quot;&gt;1024&lt;/font&gt;" style="text;html=1;align=center;verticalAlign=middle;resizable=0;points=[];autosize=1;strokeColor=none;fillColor=none;rotation=-90;" vertex="1" parent="1">
          <mxGeometry x="125" y="771.25" width="50" height="30" as="geometry" />
        </mxCell>
      </root>
    </mxGraphModel>
  </diagram>
  <diagram id="e6k0ceU5NDCNHge-fhNR" name="Page-4">
    <mxGraphModel dx="3434" dy="1433" grid="1" gridSize="10" guides="1" tooltips="1" connect="1" arrows="1" fold="1" page="1" pageScale="1" pageWidth="827" pageHeight="1169" math="0" shadow="0">
      <root>
        <mxCell id="0" />
        <mxCell id="1" parent="0" />
        <mxCell id="ThpruxKSxMEJHIMowIiw-1" value="[CLS] + Protein P (+) Protein P&#39; + [SEP]" style="shape=step;perimeter=stepPerimeter;whiteSpace=wrap;html=1;fixedSize=1;fillColor=#fff2cc;strokeColor=#d6b656;" vertex="1" parent="1">
          <mxGeometry x="-660" y="455" width="259" height="50" as="geometry" />
        </mxCell>
        <mxCell id="ThpruxKSxMEJHIMowIiw-2" value="&lt;b&gt;Pretrained ProteinBertBFD&lt;br&gt;&lt;font style=&quot;font-size: 10px;&quot;&gt;(Parameters are freezed)&lt;/font&gt;&lt;/b&gt;" style="rounded=1;whiteSpace=wrap;html=1;fillColor=#dae8fc;strokeColor=#6c8ebf;" vertex="1" parent="1">
          <mxGeometry x="-390" y="335" width="246" height="290" as="geometry" />
        </mxCell>
        <mxCell id="ThpruxKSxMEJHIMowIiw-3" value="" style="endArrow=none;dashed=1;html=1;rounded=0;entryX=0.885;entryY=0;entryDx=0;entryDy=0;entryPerimeter=0;exitX=0.885;exitY=1;exitDx=0;exitDy=0;exitPerimeter=0;" edge="1" parent="1" source="ThpruxKSxMEJHIMowIiw-2" target="ThpruxKSxMEJHIMowIiw-2">
          <mxGeometry width="50" height="50" relative="1" as="geometry">
            <mxPoint x="-180" y="425" as="sourcePoint" />
            <mxPoint x="-130" y="375" as="targetPoint" />
          </mxGeometry>
        </mxCell>
        <mxCell id="ThpruxKSxMEJHIMowIiw-4" value="" style="endArrow=classic;html=1;rounded=0;" edge="1" parent="1">
          <mxGeometry width="50" height="50" relative="1" as="geometry">
            <mxPoint x="-130" y="365" as="sourcePoint" />
            <mxPoint x="-50" y="365" as="targetPoint" />
          </mxGeometry>
        </mxCell>
        <mxCell id="ThpruxKSxMEJHIMowIiw-5" value="" style="endArrow=classic;html=1;rounded=0;" edge="1" parent="1">
          <mxGeometry width="50" height="50" relative="1" as="geometry">
            <mxPoint x="-130" y="605" as="sourcePoint" />
            <mxPoint x="-50" y="605" as="targetPoint" />
          </mxGeometry>
        </mxCell>
        <mxCell id="ThpruxKSxMEJHIMowIiw-6" value="" style="endArrow=classic;html=1;rounded=0;" edge="1" parent="1">
          <mxGeometry width="50" height="50" relative="1" as="geometry">
            <mxPoint x="-130" y="405" as="sourcePoint" />
            <mxPoint x="-50" y="405" as="targetPoint" />
          </mxGeometry>
        </mxCell>
        <mxCell id="ThpruxKSxMEJHIMowIiw-7" value="" style="endArrow=classic;html=1;rounded=0;" edge="1" parent="1">
          <mxGeometry width="50" height="50" relative="1" as="geometry">
            <mxPoint x="-130" y="445" as="sourcePoint" />
            <mxPoint x="-50" y="445" as="targetPoint" />
          </mxGeometry>
        </mxCell>
        <mxCell id="ThpruxKSxMEJHIMowIiw-8" value="" style="endArrow=classic;html=1;rounded=0;" edge="1" parent="1">
          <mxGeometry width="50" height="50" relative="1" as="geometry">
            <mxPoint x="-130" y="565" as="sourcePoint" />
            <mxPoint x="-50" y="565" as="targetPoint" />
          </mxGeometry>
        </mxCell>
        <mxCell id="ThpruxKSxMEJHIMowIiw-9" value="&lt;font style=&quot;font-size: 7px;&quot;&gt;&lt;b&gt;[CLS] Token Embedding&lt;/b&gt;&lt;/font&gt;" style="rounded=0;whiteSpace=wrap;html=1;fillColor=#d5e8d4;strokeColor=#82b366;" vertex="1" parent="1">
          <mxGeometry x="-40" y="355" width="90" height="20" as="geometry" />
        </mxCell>
        <mxCell id="ThpruxKSxMEJHIMowIiw-10" value="&lt;font style=&quot;font-size: 7px;&quot;&gt;&lt;b&gt;Amino acid&#39;s Embedding&lt;/b&gt;&lt;/font&gt;" style="rounded=0;whiteSpace=wrap;html=1;" vertex="1" parent="1">
          <mxGeometry x="-40" y="395" width="90" height="20" as="geometry" />
        </mxCell>
        <mxCell id="ThpruxKSxMEJHIMowIiw-11" value="&lt;b style=&quot;--tw-border-spacing-x: 0; --tw-border-spacing-y: 0; --tw-translate-x: 0; --tw-translate-y: 0; --tw-rotate: 0; --tw-skew-x: 0; --tw-skew-y: 0; --tw-scale-x: 1; --tw-scale-y: 1; --tw-pan-x: ; --tw-pan-y: ; --tw-pinch-zoom: ; --tw-scroll-snap-strictness: proximity; --tw-ordinal: ; --tw-slashed-zero: ; --tw-numeric-figure: ; --tw-numeric-spacing: ; --tw-numeric-fraction: ; --tw-ring-inset: ; --tw-ring-offset-width: 0px; --tw-ring-offset-color: #fff; --tw-ring-color: rgb(59 130 246 / 0.5); --tw-ring-offset-shadow: 0 0 #0000; --tw-ring-shadow: 0 0 #0000; --tw-shadow: 0 0 #0000; --tw-shadow-colored: 0 0 #0000; --tw-blur: ; --tw-brightness: ; --tw-contrast: ; --tw-grayscale: ; --tw-hue-rotate: ; --tw-invert: ; --tw-saturate: ; --tw-sepia: ; --tw-drop-shadow: ; --tw-backdrop-blur: ; --tw-backdrop-brightness: ; --tw-backdrop-contrast: ; --tw-backdrop-grayscale: ; --tw-backdrop-hue-rotate: ; --tw-backdrop-invert: ; --tw-backdrop-opacity: ; --tw-backdrop-saturate: ; --tw-backdrop-sepia: ; border-color: var(--border-color); font-size: 7px;&quot;&gt;Amino acid&#39;s Embedding&lt;/b&gt;" style="rounded=0;whiteSpace=wrap;html=1;" vertex="1" parent="1">
          <mxGeometry x="-40" y="435" width="90" height="20" as="geometry" />
        </mxCell>
        <mxCell id="ThpruxKSxMEJHIMowIiw-12" value="&lt;b style=&quot;--tw-border-spacing-x: 0; --tw-border-spacing-y: 0; --tw-translate-x: 0; --tw-translate-y: 0; --tw-rotate: 0; --tw-skew-x: 0; --tw-skew-y: 0; --tw-scale-x: 1; --tw-scale-y: 1; --tw-pan-x: ; --tw-pan-y: ; --tw-pinch-zoom: ; --tw-scroll-snap-strictness: proximity; --tw-ordinal: ; --tw-slashed-zero: ; --tw-numeric-figure: ; --tw-numeric-spacing: ; --tw-numeric-fraction: ; --tw-ring-inset: ; --tw-ring-offset-width: 0px; --tw-ring-offset-color: #fff; --tw-ring-color: rgb(59 130 246 / 0.5); --tw-ring-offset-shadow: 0 0 #0000; --tw-ring-shadow: 0 0 #0000; --tw-shadow: 0 0 #0000; --tw-shadow-colored: 0 0 #0000; --tw-blur: ; --tw-brightness: ; --tw-contrast: ; --tw-grayscale: ; --tw-hue-rotate: ; --tw-invert: ; --tw-saturate: ; --tw-sepia: ; --tw-drop-shadow: ; --tw-backdrop-blur: ; --tw-backdrop-brightness: ; --tw-backdrop-contrast: ; --tw-backdrop-grayscale: ; --tw-backdrop-hue-rotate: ; --tw-backdrop-invert: ; --tw-backdrop-opacity: ; --tw-backdrop-saturate: ; --tw-backdrop-sepia: ; border-color: var(--border-color); font-size: 7px;&quot;&gt;Amino acid&#39;s Embedding&lt;/b&gt;" style="rounded=0;whiteSpace=wrap;html=1;" vertex="1" parent="1">
          <mxGeometry x="-40" y="555" width="90" height="20" as="geometry" />
        </mxCell>
        <mxCell id="ThpruxKSxMEJHIMowIiw-13" value="&lt;b style=&quot;--tw-border-spacing-x: 0; --tw-border-spacing-y: 0; --tw-translate-x: 0; --tw-translate-y: 0; --tw-rotate: 0; --tw-skew-x: 0; --tw-skew-y: 0; --tw-scale-x: 1; --tw-scale-y: 1; --tw-pan-x: ; --tw-pan-y: ; --tw-pinch-zoom: ; --tw-scroll-snap-strictness: proximity; --tw-ordinal: ; --tw-slashed-zero: ; --tw-numeric-figure: ; --tw-numeric-spacing: ; --tw-numeric-fraction: ; --tw-ring-inset: ; --tw-ring-offset-width: 0px; --tw-ring-offset-color: #fff; --tw-ring-color: rgb(59 130 246 / 0.5); --tw-ring-offset-shadow: 0 0 #0000; --tw-ring-shadow: 0 0 #0000; --tw-shadow: 0 0 #0000; --tw-shadow-colored: 0 0 #0000; --tw-blur: ; --tw-brightness: ; --tw-contrast: ; --tw-grayscale: ; --tw-hue-rotate: ; --tw-invert: ; --tw-saturate: ; --tw-sepia: ; --tw-drop-shadow: ; --tw-backdrop-blur: ; --tw-backdrop-brightness: ; --tw-backdrop-contrast: ; --tw-backdrop-grayscale: ; --tw-backdrop-hue-rotate: ; --tw-backdrop-invert: ; --tw-backdrop-opacity: ; --tw-backdrop-saturate: ; --tw-backdrop-sepia: ; border-color: var(--border-color); font-size: 7px;&quot;&gt;[SEP] Token Embedding&lt;/b&gt;" style="rounded=0;whiteSpace=wrap;html=1;" vertex="1" parent="1">
          <mxGeometry x="-40" y="595" width="90" height="20" as="geometry" />
        </mxCell>
        <mxCell id="ThpruxKSxMEJHIMowIiw-14" value="" style="shape=crossbar;whiteSpace=wrap;html=1;rounded=1;" vertex="1" parent="1">
          <mxGeometry x="-40" y="325" width="90" height="20" as="geometry" />
        </mxCell>
        <mxCell id="ThpruxKSxMEJHIMowIiw-15" value="&lt;font style=&quot;font-size: 9px;&quot;&gt;1024&lt;/font&gt;" style="text;html=1;align=center;verticalAlign=middle;resizable=0;points=[];autosize=1;strokeColor=none;fillColor=none;" vertex="1" parent="1">
          <mxGeometry x="-20" y="310" width="40" height="30" as="geometry" />
        </mxCell>
        <mxCell id="ThpruxKSxMEJHIMowIiw-16" value="" style="rounded=0;whiteSpace=wrap;html=1;fillColor=#000000;" vertex="1" parent="1">
          <mxGeometry x="-5" y="465" width="10" height="10" as="geometry" />
        </mxCell>
        <mxCell id="ThpruxKSxMEJHIMowIiw-17" value="" style="rounded=0;whiteSpace=wrap;html=1;fillColor=#000000;" vertex="1" parent="1">
          <mxGeometry x="-5" y="495" width="10" height="10" as="geometry" />
        </mxCell>
        <mxCell id="ThpruxKSxMEJHIMowIiw-18" value="" style="rounded=0;whiteSpace=wrap;html=1;fillColor=#000000;" vertex="1" parent="1">
          <mxGeometry x="-5" y="525" width="10" height="10" as="geometry" />
        </mxCell>
        <mxCell id="ThpruxKSxMEJHIMowIiw-19" value="" style="edgeStyle=segmentEdgeStyle;endArrow=classic;html=1;curved=0;rounded=0;endSize=8;startSize=8;" edge="1" parent="1">
          <mxGeometry width="50" height="50" relative="1" as="geometry">
            <mxPoint x="60" y="365" as="sourcePoint" />
            <mxPoint x="130" y="385" as="targetPoint" />
          </mxGeometry>
        </mxCell>
        <mxCell id="ThpruxKSxMEJHIMowIiw-20" value="" style="rounded=0;whiteSpace=wrap;html=1;fillColor=#f8cecc;strokeColor=#b85450;" vertex="1" parent="1">
          <mxGeometry x="120" y="405" width="20" height="130" as="geometry" />
        </mxCell>
        <mxCell id="ThpruxKSxMEJHIMowIiw-21" value="&lt;font style=&quot;font-size: 10px;&quot;&gt;&lt;b&gt;Convolutional Layers and Fully Connected Linear Layers with ReLU activation functions&lt;br&gt;(Trainable Parameters)&lt;br&gt;&lt;br&gt;&lt;/b&gt;&lt;/font&gt;" style="rounded=0;whiteSpace=wrap;html=1;dashed=1;fillColor=#d5e8d4;strokeColor=#82b366;" vertex="1" parent="1">
          <mxGeometry x="181" y="405" width="160" height="130" as="geometry" />
        </mxCell>
        <mxCell id="ThpruxKSxMEJHIMowIiw-22" value="" style="endArrow=classic;html=1;rounded=0;" edge="1" parent="1">
          <mxGeometry width="50" height="50" relative="1" as="geometry">
            <mxPoint x="150" y="469.5" as="sourcePoint" />
            <mxPoint x="170" y="470" as="targetPoint" />
          </mxGeometry>
        </mxCell>
        <mxCell id="ThpruxKSxMEJHIMowIiw-23" value="" style="endArrow=classic;html=1;rounded=0;" edge="1" parent="1">
          <mxGeometry width="50" height="50" relative="1" as="geometry">
            <mxPoint x="350" y="430" as="sourcePoint" />
            <mxPoint x="380" y="430" as="targetPoint" />
          </mxGeometry>
        </mxCell>
        <mxCell id="ThpruxKSxMEJHIMowIiw-24" value="" style="rounded=0;whiteSpace=wrap;html=1;" vertex="1" parent="1">
          <mxGeometry x="390" y="420" width="30" height="20" as="geometry" />
        </mxCell>
        <mxCell id="ThpruxKSxMEJHIMowIiw-25" value="&lt;font style=&quot;font-size: 7px;&quot;&gt;Prediction value&lt;/font&gt;" style="text;html=1;align=center;verticalAlign=middle;resizable=0;points=[];autosize=1;strokeColor=none;fillColor=none;" vertex="1" parent="1">
          <mxGeometry x="371" y="435" width="70" height="30" as="geometry" />
        </mxCell>
        <mxCell id="ThpruxKSxMEJHIMowIiw-26" value="&lt;font style=&quot;font-size: 10px;&quot;&gt;&lt;b&gt;Concatenated Protein Pairs Input of Length L&lt;/b&gt;&lt;/font&gt;" style="text;html=1;align=center;verticalAlign=middle;resizable=0;points=[];autosize=1;strokeColor=none;fillColor=none;" vertex="1" parent="1">
          <mxGeometry x="-660" y="270" width="240" height="30" as="geometry" />
        </mxCell>
        <mxCell id="ThpruxKSxMEJHIMowIiw-27" value="&lt;font style=&quot;font-size: 10px;&quot;&gt;&lt;b&gt;Pretrained ProteinBertBFD&lt;/b&gt;&lt;/font&gt;" style="text;html=1;align=center;verticalAlign=middle;resizable=0;points=[];autosize=1;strokeColor=none;fillColor=none;" vertex="1" parent="1">
          <mxGeometry x="-340" y="270" width="150" height="30" as="geometry" />
        </mxCell>
        <mxCell id="ThpruxKSxMEJHIMowIiw-28" value="&lt;b&gt;&lt;font style=&quot;font-size: 10px;&quot;&gt;Embedding vectors from ProtBert&lt;/font&gt;&lt;/b&gt;" style="text;html=1;align=center;verticalAlign=middle;resizable=0;points=[];autosize=1;strokeColor=none;fillColor=none;" vertex="1" parent="1">
          <mxGeometry x="-80" y="270" width="180" height="30" as="geometry" />
        </mxCell>
        <mxCell id="ThpruxKSxMEJHIMowIiw-29" value="&lt;font style=&quot;font-size: 10px;&quot;&gt;&lt;b&gt;[CLS] Embedding&lt;/b&gt;&lt;/font&gt;" style="text;html=1;align=center;verticalAlign=middle;resizable=0;points=[];autosize=1;strokeColor=none;fillColor=none;" vertex="1" parent="1">
          <mxGeometry x="115" y="270" width="110" height="30" as="geometry" />
        </mxCell>
        <mxCell id="ThpruxKSxMEJHIMowIiw-30" value="&lt;font style=&quot;font-size: 10px;&quot;&gt;&lt;b&gt;Fully connected Neural networks&lt;/b&gt;&lt;/font&gt;" style="text;html=1;align=center;verticalAlign=middle;resizable=0;points=[];autosize=1;strokeColor=none;fillColor=none;" vertex="1" parent="1">
          <mxGeometry x="230" y="270" width="180" height="30" as="geometry" />
        </mxCell>
        <mxCell id="ThpruxKSxMEJHIMowIiw-31" value="" style="endArrow=classic;html=1;rounded=0;" edge="1" parent="1">
          <mxGeometry width="50" height="50" relative="1" as="geometry">
            <mxPoint x="-420" y="284.5" as="sourcePoint" />
            <mxPoint x="-340" y="284.5" as="targetPoint" />
          </mxGeometry>
        </mxCell>
        <mxCell id="ThpruxKSxMEJHIMowIiw-32" value="" style="endArrow=classic;html=1;rounded=0;" edge="1" parent="1">
          <mxGeometry width="50" height="50" relative="1" as="geometry">
            <mxPoint x="-170" y="284.5" as="sourcePoint" />
            <mxPoint x="-90" y="284.5" as="targetPoint" />
          </mxGeometry>
        </mxCell>
        <mxCell id="ThpruxKSxMEJHIMowIiw-33" value="" style="endArrow=classic;html=1;rounded=0;" edge="1" parent="1">
          <mxGeometry width="50" height="50" relative="1" as="geometry">
            <mxPoint x="100" y="284.5" as="sourcePoint" />
            <mxPoint x="120" y="285" as="targetPoint" />
          </mxGeometry>
        </mxCell>
        <mxCell id="ThpruxKSxMEJHIMowIiw-34" value="" style="endArrow=classic;html=1;rounded=0;" edge="1" parent="1" source="ThpruxKSxMEJHIMowIiw-29">
          <mxGeometry width="50" height="50" relative="1" as="geometry">
            <mxPoint x="110" y="294.5" as="sourcePoint" />
            <mxPoint x="240" y="286" as="targetPoint" />
            <Array as="points">
              <mxPoint x="220" y="286" />
            </Array>
          </mxGeometry>
        </mxCell>
        <mxCell id="ThpruxKSxMEJHIMowIiw-35" value="&lt;div style=&quot;text-align: center;&quot;&gt;&lt;span style=&quot;background-color: initial; font-size: 10px;&quot;&gt;&lt;b&gt;&amp;nbsp; (Non-trainable parameters)&lt;/b&gt;&lt;/span&gt;&lt;/div&gt;" style="text;whiteSpace=wrap;html=1;" vertex="1" parent="1">
          <mxGeometry x="-337" y="285" width="160" height="40" as="geometry" />
        </mxCell>
      </root>
    </mxGraphModel>
  </diagram>
</mxfile>
